<svg viewBox="0 0 330 64" width="330" height="64" xmlns="http://www.w3.org/2000/svg">
<style>
    path { fill: #24292f}
    rect { fill: #cdc8bc}
    @media (prefers-color-scheme: dark) {
      path { fill: #dfe2e2; transition: 0.3s ease-in-out; }
      rect { fill: #ada89c; transition: 0.3s ease-in-out; }
    }
</style>
<path d="m 134.6319,23.465338 -0.28984,-7.245836 h -0.67628 c -0.19322,0.676278 -0.70848,1.062722 -1.35255,1.062722 -0.28983,0 -0.77289,-0.09661 -1.25595,-0.257629 -1.57798,-0.547463 -3.18816,-0.805093 -4.70174,-0.805093 -2.6407,0 -5.31361,0.998315 -7.31025,2.769519 -2.25426,1.996631 -3.478,4.959373 -3.478,8.501782 0,6.569558 4.2831,10.949263 10.69164,10.949263 3.63902,0 6.85939,-1.48137 8.79161,-4.089872 l -0.57966,-0.579666 c -2.35088,2.286464 -4.50852,3.252575 -7.18143,3.252575 -2.02883,0 -3.83224,-0.644075 -5.21701,-1.867815 -1.7712,-1.577982 -2.76952,-4.476317 -2.76952,-8.083134 0,-5.828872 2.99495,-9.564504 7.6645,-9.564504 1.8356,0 3.5102,0.676278 4.79834,1.932224 1.03052,1.030518 1.51358,1.932222 2.12545,4.025464 z m 9.24245,-0.289834 c -4.21869,0 -7.11702,3.091558 -7.11702,7.53567 0,4.379706 2.99495,7.600078 7.05261,7.600078 4.05767,0 7.14923,-3.38139 7.14923,-7.857707 0,-4.250891 -2.96275,-7.278041 -7.08482,-7.278041 z m -0.41865,0.901705 c 2.70512,0 4.60514,3.091557 4.60514,7.503466 0,3.671223 -1.44918,5.828873 -3.86445,5.828873 -1.25595,0 -2.44749,-0.77289 -3.12377,-2.061038 -0.9017,-1.674594 -1.41696,-3.928854 -1.41696,-6.215318 0,-3.059352 1.48138,-5.055983 3.80004,-5.055983 z m 9.04924,13.912005 h 6.8272 v -0.483055 c -1.61019,-0.09661 -2.12545,-0.51526 -2.12545,-1.674593 v -9.049245 c 1.54578,-1.449167 2.25426,-1.835611 3.31698,-1.835611 1.57799,0 2.35087,0.998314 2.35087,3.12376 v 6.730576 c -0.0644,2.093242 -0.45085,2.608502 -2.02883,2.705113 v 0.483055 h 6.69837 v -0.483055 c -1.57798,-0.161019 -1.93222,-0.547463 -1.96442,-2.125445 v -7.374652 c 0,-3.027149 -1.41697,-4.830558 -3.80004,-4.830558 -1.48138,0 -2.47969,0.547464 -4.66954,2.608502 v -2.544094 l -0.22543,-0.0644 c -1.67459,0.611871 -2.76951,0.966111 -4.44411,1.449167 v 0.547464 c 0.22542,-0.09661 0.51526,-0.128816 0.8695,-0.128816 0.9017,0 1.19154,0.483056 1.19154,2.061038 v 7.986522 c -0.0322,1.90002 -0.38644,2.318668 -1.99664,2.415279 z m 23.73414,-14.491672 h -3.25257 V 19.76191 c 0,-0.322036 -0.0644,-0.418648 -0.22543,-0.418648 -1.86781,2.705112 -2.83392,3.800039 -3.76783,4.347502 -0.35424,0.225426 -0.54747,0.418648 -0.54747,0.611871 0,0.09661 0.0322,0.161019 0.12882,0.225426 h 1.7068 v 9.693319 c 0,2.705112 0.96611,4.089872 2.86613,4.089872 1.57798,0 2.80173,-0.77289 3.86445,-2.447483 l -0.41865,-0.354241 c -0.70849,0.837297 -1.22375,1.12713 -1.93223,1.12713 -1.19154,0 -1.67459,-0.8695 -1.67459,-2.898334 v -9.210263 h 3.25257 z m 15.29677,12.366227 c -0.54746,0.450852 -0.93391,0.611871 -1.41696,0.611871 -0.74069,0 -0.96611,-0.450852 -0.96611,-1.867816 V 28.3281 c 0,-1.674594 -0.16102,-2.608502 -0.64408,-3.38139 -0.70848,-1.159334 -2.09324,-1.771206 -3.99326,-1.771206 -3.02715,0 -5.41022,1.577983 -5.41022,3.606817 0,0.740685 0.61187,1.38476 1.38476,1.38476 0.77288,0 1.44916,-0.644075 1.44916,-1.352557 0,-0.128814 -0.0322,-0.289832 -0.0644,-0.515258 -0.0644,-0.289834 -0.0966,-0.547464 -0.0966,-0.77289 0,-0.8695 1.03052,-1.577982 2.31868,-1.577982 1.57798,0 2.44748,0.933908 2.44748,2.672908 v 1.964427 c -4.92718,1.964427 -5.50684,2.254261 -6.8916,3.478001 -0.70848,0.644075 -1.15934,1.739002 -1.15934,2.801724 0,2.028834 1.41697,3.445798 3.3814,3.445798 1.41696,0 2.73731,-0.676278 4.70174,-2.350872 0.16102,1.706798 0.74068,2.350872 2.06104,2.350872 1.09492,0 1.7712,-0.386445 2.89833,-1.610186 z m -4.99157,-1.835611 c 0,0.966111 -0.16102,1.320352 -0.8373,1.706796 -0.8051,0.450852 -1.6746,0.708482 -2.35087,0.708482 -1.12713,0 -2.02883,-1.094926 -2.02883,-2.479686 v -0.128815 c 0.0322,-1.932223 1.44916,-3.155964 5.217,-4.476317 z m 17.87307,-1.062724 c -1.54578,2.254261 -2.70512,3.02715 -4.54073,3.02715 -2.96274,0 -4.99157,-2.576298 -4.99157,-6.279724 0,-3.349188 1.7712,-5.603448 4.3797,-5.603448 1.15934,0 1.57798,0.322038 1.90002,1.545779 l 0.19322,0.708481 c 0.25763,0.933908 0.8373,1.481372 1.54578,1.481372 0.8373,0 1.51358,-0.611871 1.51358,-1.352556 0,-1.803408 -2.25426,-3.316984 -4.95938,-3.316984 -1.57798,0 -3.22037,0.644075 -4.54072,1.803409 -1.61018,1.416963 -2.51189,3.606816 -2.51189,6.183113 0,4.15428 2.54409,7.149226 6.11871,7.149226 1.44916,0 2.73731,-0.51526 3.89664,-1.513575 0.8695,-0.740685 1.48138,-1.642389 2.44749,-3.542409 z m 9.24248,-9.467892 h -3.25258 V 19.76191 c 0,-0.322036 -0.0644,-0.418648 -0.22542,-0.418648 -1.86782,2.705112 -2.83393,3.800039 -3.76784,4.347502 -0.35424,0.225426 -0.54746,0.418648 -0.54746,0.611871 0,0.09661 0.0322,0.161019 0.12881,0.225426 h 1.7068 v 9.693319 c 0,2.705112 0.96611,4.089872 2.86613,4.089872 1.57798,0 2.80172,-0.77289 3.86444,-2.447483 l -0.41864,-0.354241 c -0.70848,0.837297 -1.22374,1.12713 -1.93222,1.12713 -1.19154,0 -1.6746,-0.8695 -1.6746,-2.898334 v -9.210263 h 3.25258 z"
aria-label="Contact" style="stroke-width:0.67091"/>
<rect width="50.486034" height="2.0127323" x="139.75699" y="45.767765" style="stroke-width:0.67091"/>
</svg>
