<svg viewBox="0 0 330 64" width="330" height="64" xmlns="http://www.w3.org/2000/svg">
  <style>
    path { fill: #24292f}
    rect { fill: #cdc8bc}
    @media (prefers-color-scheme: dark) {
      path { fill: #dfe2e2; transition: 0.3s ease-in-out; }
      rect { fill: #ada89c; transition: 0.3s ease-in-out; }
    }
  </style>
  <path d="m 119.736,17.239001 -0.432,-10.8 h -1.008 c -0.288,1.008 -1.056,1.584 -2.016,1.584 -0.432,0 -1.152,-0.144 -1.872,-0.384 -2.352,-0.816 -4.752,-1.2 -7.008,-1.2 -3.936,0 -7.920002,1.488 -10.896002,4.128 -3.36,2.976 -5.184,7.392 -5.184,12.672 0,9.792 6.384,16.32 15.936002,16.32 5.424,0 10.224,-2.208 13.104,-6.096 l -0.864,-0.864 c -3.504,3.408 -6.72,4.848 -10.704,4.848 -3.024,0 -5.712,-0.96 -7.776,-2.784 -2.640002,-2.352 -4.128002,-6.672 -4.128002,-12.048 0,-8.688 4.464002,-14.256 11.424002,-14.256 2.736,0 5.232,1.008 7.152,2.88 1.536,1.536 2.256,2.88 3.168,6 z m 13.77598,-0.432 c -6.288,0 -10.608,4.608 -10.608,11.232 0,6.528 4.464,11.328 10.512,11.328 6.048,0 10.656,-5.04 10.656,-11.712 0,-6.336 -4.416,-10.848 -10.56,-10.848 z m -0.624,1.344 c 4.032,0 6.864,4.608 6.864,11.184 0,5.472 -2.16,8.688 -5.76,8.688 -1.872,0 -3.648,-1.152 -4.656,-3.072 -1.344,-2.496 -2.112,-5.856 -2.112,-9.264 0,-4.56 2.208,-7.536 5.664,-7.536 z m 13.488,20.736 h 10.176 v -0.72 c -2.4,-0.144 -3.168,-0.768 -3.168,-2.496 v -13.488 c 2.304,-2.16 3.36,-2.736 4.944,-2.736 2.352,0 3.504,1.488 3.504,4.656 v 10.032 c -0.096,3.12 -0.672,3.888 -3.024,4.032 v 0.72 h 9.984 v -0.72 c -2.352,-0.24 -2.88,-0.816 -2.928,-3.168 v -10.992 c 0,-4.512 -2.112,-7.2 -5.664,-7.2 -2.208,0 -3.696,0.816 -6.96,3.888 v -3.792 l -0.336,-0.096 c -2.496,0.912 -4.128,1.44 -6.624,2.16 v 0.816 c 0.336,-0.144 0.768,-0.192 1.296,-0.192 1.344,0 1.776,0.72 1.776,3.072 v 11.904 c -0.048,2.832 -0.576,3.456 -2.976,3.6 z m 35.376,-21.6 h -4.848 v -5.568 c 0,-0.48 -0.096,-0.624 -0.336,-0.624 -2.784,4.032 -4.224,5.664 -5.616,6.48 -0.528,0.336 -0.816,0.624 -0.816,0.912 0,0.144 0.048,0.24 0.192,0.336 h 2.544 v 14.448 c 0,4.032 1.44,6.096 4.272,6.096 2.352,0 4.176,-1.152 5.76,-3.648 l -0.624,-0.528 c -1.056,1.248 -1.824,1.68 -2.88,1.68 -1.776,0 -2.496,-1.296 -2.496,-4.32 v -13.728 h 4.848 z m 22.8,18.432 c -0.816,0.672 -1.392,0.912 -2.112,0.912 -1.104,0 -1.44,-0.672 -1.44,-2.784 v -9.36 c 0,-2.496 -0.24,-3.888 -0.96,-5.04 -1.056,-1.728 -3.12,-2.64 -5.952,-2.64 -4.512,0 -8.064,2.352 -8.064,5.376 0,1.104 0.912,2.064 2.064,2.064 1.152,0 2.16,-0.96 2.16,-2.016 0,-0.192 -0.048,-0.432 -0.096,-0.768 -0.096,-0.432 -0.144,-0.816 -0.144,-1.152 0,-1.296 1.536,-2.352 3.456,-2.352 2.352,0 3.648,1.392 3.648,3.984 v 2.928 c -7.344,2.928 -8.208,3.36 -10.272,5.184 -1.056,0.96 -1.728,2.592 -1.728,4.176 0,3.024 2.112,5.136 5.04,5.136 2.112,0 4.08,-1.008 7.008,-3.504 0.24,2.544 1.104,3.504 3.072,3.504 1.632,0 2.64,-0.576 4.32,-2.4 z m -7.44,-2.736 c 0,1.44 -0.24,1.968 -1.248,2.544 -1.2,0.672 -2.496,1.056 -3.504,1.056 -1.68,0 -3.024,-1.632 -3.024,-3.696 v -0.192 c 0.048,-2.88 2.16,-4.704 7.776,-6.672 z m 26.64001,-1.584 c -2.304,3.36 -4.032,4.512 -6.768,4.512 -4.416,0 -7.44,-3.84 -7.44,-9.36 0,-4.992 2.64,-8.352 6.528,-8.352 1.728,0 2.352,0.48 2.832,2.304 l 0.288,1.056 c 0.384,1.392 1.248,2.208 2.304,2.208 1.248,0 2.256,-0.912 2.256,-2.016 0,-2.688 -3.36,-4.944 -7.392,-4.944 -2.352,0 -4.8,0.96 -6.768,2.688 -2.4,2.112 -3.744,5.376 -3.744,9.216 0,6.192 3.792,10.656 9.12,10.656 2.16,0 4.08,-0.768 5.808,-2.256 1.296,-1.104 2.208,-2.448 3.648,-5.28 z m 13.77602,-14.112 h -4.848 v -5.568 c 0,-0.48 -0.096,-0.624 -0.336,-0.624 -2.784,4.032 -4.224,5.664 -5.616,6.48 -0.528,0.336 -0.816,0.624 -0.816,0.912 0,0.144 0.048,0.24 0.192,0.336 h 2.544 v 14.448 c 0,4.032 1.44,6.096 4.272,6.096 2.352,0 4.176,-1.152 5.76,-3.648 l -0.624,-0.528 c -1.056,1.248 -1.824,1.68 -2.88,1.68 -1.776,0 -2.496,-1.296 -2.496,-4.32 v -13.728 h 4.848 z"
  aria-label="Contact" />
  <rect width="75.25" height="3" x="127.375" y="47.5"/>
</svg>
