<svg viewBox="0 0 330 64" width="330" height="64" xmlns="http://www.w3.org/2000/svg">
  <style>
    path { fill: #24292f}
    rect { fill: #cdc8bc}
    @media (prefers-color-scheme: dark) {
      path { fill: #dfe2e2; transition: 0.3s ease-in-out; }
      rect { fill: #ada89c; transition: 0.3s ease-in-out; }
    }
  </style>
  <path
     d="m 127.18395,22.617419 -0.36092,-9.022918 h -0.84214 c -0.24061,0.842139 -0.88224,1.323361 -1.68427,1.323361 -0.36092,0 -0.96245,-0.120306 -1.56398,-0.320815 -1.96499,-0.681731 -3.97008,-1.002546 -5.85487,-1.002546 -3.28835,0 -6.61681,1.243157 -9.10313,3.448759 -2.80713,2.486316 -4.331,6.175687 -4.331,10.586892 0,8.180779 5.33355,13.634631 13.31383,13.634631 4.53151,0 8.54169,-1.844685 10.9478,-5.092936 l -0.72183,-0.721833 c -2.92744,2.847232 -5.61426,4.050288 -8.94271,4.050288 -2.52642,0 -4.77212,-0.802038 -6.49651,-2.325908 -2.2056,-1.964991 -3.44876,-5.574158 -3.44876,-10.065567 0,-7.258436 3.72947,-11.910252 9.54425,-11.910252 2.2858,0 4.3711,0.842139 5.97517,2.406112 1.28326,1.283259 1.88479,2.406111 2.64673,5.012732 z m 11.50922,-0.360917 c -5.25335,0 -8.86251,3.849779 -8.86251,9.383835 0,5.453853 3.72947,9.464039 8.7823,9.464039 5.05284,0 8.90262,-4.210695 8.90262,-9.784853 0,-5.293446 -3.68938,-9.063021 -8.82241,-9.063021 z m -0.52133,1.122853 c 3.36856,0 5.73457,3.849778 5.73457,9.343733 0,4.571611 -1.80459,7.258436 -4.81222,7.258436 -1.56398,0 -3.04775,-0.962445 -3.88989,-2.566519 -1.12285,-2.085297 -1.76448,-4.892427 -1.76448,-7.739659 0,-3.809676 1.84469,-6.295991 4.73202,-6.295991 z m 11.26862,17.324002 h 8.5016 V 40.10183 c -2.00509,-0.120306 -2.64672,-0.64163 -2.64672,-2.085297 V 26.747911 c 1.92489,-1.804584 2.80713,-2.285806 4.13049,-2.285806 1.96499,0 2.92743,1.243157 2.92743,3.88988 v 8.381288 c -0.0802,2.606621 -0.56142,3.248251 -2.52641,3.368557 v 0.601527 h 8.34118 V 40.10183 c -1.96499,-0.20051 -2.40611,-0.681732 -2.44621,-2.646723 v -9.183326 c 0,-3.769574 -1.76448,-6.015279 -4.73202,-6.015279 -1.84469,0 -3.08784,0.681732 -5.81477,3.248251 v -3.168047 l -0.28071,-0.0802 c -2.0853,0.761936 -3.44876,1.203056 -5.53406,1.804584 v 0.681732 c 0.28071,-0.120306 0.64163,-0.160408 1.08275,-0.160408 1.12285,0 1.48377,0.601528 1.48377,2.566519 v 9.945261 c -0.0401,2.36601 -0.48122,2.887334 -2.48632,3.00764 z m 29.55507,-18.045836 h -4.05028 v -4.651816 c 0,-0.401018 -0.0802,-0.521324 -0.28072,-0.521324 -2.3259,3.368556 -3.52896,4.73202 -4.69191,5.413751 -0.44112,0.280713 -0.68174,0.521324 -0.68174,0.761936 0,0.120305 0.0401,0.200509 0.16041,0.280713 h 2.1254 V 36.01144 c 0,3.368556 1.20306,5.092936 3.56907,5.092936 1.96499,0 3.48886,-0.962445 4.81222,-3.047741 l -0.52132,-0.441121 c -0.88225,1.042649 -1.52388,1.403565 -2.40612,1.403565 -1.48377,0 -2.08529,-1.08275 -2.08529,-3.609167 V 23.940781 h 4.05028 z m 19.04839,15.399114 c -0.68173,0.561426 -1.16296,0.761935 -1.76448,0.761935 -0.92235,0 -1.20306,-0.561426 -1.20306,-2.325908 V 28.6728 c 0,-2.085297 -0.20051,-3.248251 -0.80204,-4.210695 -0.88224,-1.443667 -2.60662,-2.205603 -4.97263,-2.205603 -3.76957,0 -6.73711,1.964992 -6.73711,4.491409 0,0.922342 0.76194,1.72438 1.72438,1.72438 0.96244,0 1.80458,-0.802038 1.80458,-1.684279 0,-0.160407 -0.0401,-0.360916 -0.0802,-0.641629 -0.0802,-0.360917 -0.12031,-0.681732 -0.12031,-0.962445 0,-1.08275 1.28326,-1.964991 2.88734,-1.964991 1.96499,0 3.04774,1.162954 3.04774,3.328454 v 2.446214 c -6.13559,2.446213 -6.85742,2.80713 -8.5818,4.331 -0.88224,0.802038 -1.44367,2.165501 -1.44367,3.488862 0,2.526417 1.76449,4.290899 4.2107,4.290899 1.76448,0 3.40866,-0.842139 5.85487,-2.927436 0.20051,2.125399 0.92234,2.927436 2.56652,2.927436 1.36346,0 2.2056,-0.481222 3.60917,-2.005093 z m -6.21579,-2.285806 c 0,1.203056 -0.20051,1.644176 -1.04265,2.125398 -1.00255,0.561426 -2.0853,0.882241 -2.92743,0.882241 -1.40357,0 -2.52642,-1.363463 -2.52642,-3.087843 v -0.160407 c 0.0401,-2.406112 1.80458,-3.929982 6.4965,-5.574159 z m 22.25654,-1.323362 c -1.92489,2.807131 -3.36856,3.769575 -5.65436,3.769575 -3.68937,0 -6.21579,-3.208149 -6.21579,-7.819862 0,-4.170594 2.2056,-6.977724 5.45385,-6.977724 1.44367,0 1.96499,0.401019 2.36601,1.92489 l 0.24061,0.88224 c 0.32082,1.162954 1.04265,1.844686 1.92489,1.844686 1.04265,0 1.88479,-0.761935 1.88479,-1.684278 0,-2.245704 -2.80713,-4.130492 -6.17569,-4.130492 -1.96499,0 -4.01018,0.802038 -5.65436,2.245705 -2.00509,1.764481 -3.12794,4.491408 -3.12794,7.699556 0,5.17314 3.16804,8.902613 7.61935,8.902613 1.80458,0 3.40866,-0.64163 4.85232,-1.884787 1.08275,-0.922343 1.84469,-2.045195 3.04775,-4.411205 z m 11.50925,-11.789946 h -4.05029 v -4.651816 c 0,-0.401018 -0.0802,-0.521324 -0.28071,-0.521324 -2.32591,3.368556 -3.52896,4.73202 -4.69192,5.413751 -0.44112,0.280713 -0.68173,0.521324 -0.68173,0.761936 0,0.120305 0.0401,0.200509 0.16041,0.280713 h 2.1254 V 36.01144 c 0,3.368556 1.20305,5.092936 3.56906,5.092936 1.96499,0 3.48886,-0.962445 4.81222,-3.047741 l -0.52132,-0.441121 c -0.88224,1.042649 -1.52387,1.403565 -2.40611,1.403565 -1.48377,0 -2.0853,-1.08275 -2.0853,-3.609167 V 23.940781 h 4.05029 z"
     aria-label="Contact" style="stroke-width:0.835455" />
  <rect width="62.868019" height="2.5063663" x="133.56599" y="47.899132" style="stroke-width:0.835455" />
</svg>
