<svg viewBox="0 0 360 64" width="360" height="64" xmlns="http://www.w3.org/2000/svg">
  <style>
    path { fill: #24292f}
    rect { fill: #cdc8bc}
    @media (prefers-color-scheme: dark) {
      path { fill: #dfe2e2; transition: 0.3s ease-in-out; }
      rect { fill: #ada89c; transition: 0.3s ease-in-out; }
    }
  </style>
<path d="m 56.914339,14.109878 h -0.78877 c -0.150241,0.82633 -0.563406,1.277055 -1.201934,1.277055 -0.375605,0 -1.014132,-0.150242 -1.65266,-0.450725 -1.389737,-0.525847 -2.779473,-0.82633 -4.018968,-0.82633 -1.577539,0 -3.230199,0.638527 -4.469694,1.727781 -1.314616,1.164374 -1.990704,2.741913 -1.990704,4.695056 0,3.004836 1.65266,5.108221 5.859431,7.324288 2.704352,1.464858 4.657496,2.967276 5.596507,4.394573 0.338044,0.488286 0.525846,1.277056 0.525846,2.216068 0,2.478989 -1.878022,4.20677 -4.619935,4.20677 -3.380441,0 -5.709189,-2.065825 -7.587212,-6.648201 h -0.86389 l 1.126814,7.962817 h 0.826329 c 0.03756,-0.713649 0.488286,-1.239495 1.051693,-1.239495 0.413165,0 1.051693,0.150242 1.765341,0.413165 1.427298,0.563407 2.967276,0.86389 4.432134,0.86389 4.357012,0 7.662332,-2.967275 7.662332,-6.873563 0,-3.079957 -2.065825,-5.483826 -7.023805,-8.188179 -3.943847,-2.140945 -5.521386,-3.793605 -5.521386,-5.85943 0,-2.065825 1.577539,-3.455562 3.906287,-3.455562 1.69022,0 3.267759,0.713649 4.582375,2.065825 1.164374,1.201935 1.69022,2.178506 2.291188,4.394573 h 0.939011 z m 12.92081,8.113057 c -4.920419,0 -8.30086,3.605804 -8.30086,8.789146 0,5.108222 3.493123,8.864268 8.22574,8.864268 4.732616,0 8.33842,-3.943848 8.33842,-9.164752 0,-4.957979 -3.455562,-8.488662 -8.2633,-8.488662 z m -0.488285,1.051693 c 3.155077,0 5.371144,3.605803 5.371144,8.751585 0,4.281893 -1.69022,6.798443 -4.507254,6.798443 -1.464858,0 -2.854594,-0.901451 -3.643364,-2.403869 -1.051693,-1.953143 -1.65266,-4.582376 -1.65266,-7.249168 0,-3.568243 1.727781,-5.896991 4.432134,-5.896991 z M 90.831443,22.59854 h -4.619936 v -4.357013 c 0,-2.216066 0.713649,-3.34288 2.140946,-3.34288 0.82633,0 1.314616,0.375605 1.990704,1.464858 0.600967,0.976572 1.051693,1.352176 1.69022,1.352176 0.901451,0 1.577539,-0.676088 1.577539,-1.539978 0,-1.352177 -1.65266,-2.328749 -3.906287,-2.328749 -2.366308,0 -4.319452,1.014133 -5.296023,2.704353 -0.976572,1.69022 -1.277056,3.042397 -1.314616,6.047233 h -3.079958 v 1.201934 h 3.079958 v 11.793983 c -0.07512,2.817034 -0.450726,3.230199 -3.117518,3.34288 v 0.563407 h 9.765718 v -0.563407 c -3.079957,-0.112681 -3.493122,-0.525846 -3.493122,-3.34288 V 23.800474 h 4.582375 z m 10.854987,0 h -3.793609 v -4.357013 c 0,-0.375604 -0.07511,-0.488285 -0.26292,-0.488285 -2.178506,3.155078 -3.305321,4.432133 -4.394574,5.070661 -0.413165,0.262923 -0.638528,0.488285 -0.638528,0.713648 0,0.112681 0.03756,0.187802 0.150242,0.262923 h 1.990704 v 11.305697 c 0,3.155078 1.126817,4.770178 3.34288,4.770178 1.840463,0 3.267755,-0.901451 4.507255,-2.854595 l -0.48829,-0.413165 c -0.82633,0.976572 -1.42729,1.314616 -2.253625,1.314616 -1.389739,0 -1.953144,-1.014132 -1.953144,-3.380441 v -10.74229 h 3.793609 z m 22.53628,0 v 0.563407 c 1.27706,0.262923 1.65267,0.525846 1.65267,1.164374 0,0.563406 -0.22536,1.464857 -0.63853,2.478989 l -3.38044,8.338422 -3.15508,-8.413542 c -0.63852,-1.727781 -0.63852,-1.727781 -0.63852,-2.216067 0,-0.82633 0.41316,-1.089253 2.1785,-1.352176 V 22.59854 h -7.62478 v 0.563407 c 1.38974,0.150241 1.84046,0.600967 2.59167,2.591671 0.18781,0.525846 0.52585,1.464857 0.75121,2.103385 l -3.41799,7.474531 -3.71849,-9.803279 c -0.15024,-0.375604 -0.22537,-0.751209 -0.22537,-1.126813 0,-0.78877 0.41317,-1.089254 1.72779,-1.239495 V 22.59854 h -6.76088 v 0.563407 c 0.86389,0.07512 1.16437,0.450725 1.9907,2.366308 l 5.07066,12.845675 c 0.45072,1.164374 0.75121,1.65266 0.97657,1.65266 0.18781,0 0.48828,-0.450725 0.93902,-1.464857 l 4.20676,-9.01451 3.41801,8.864268 c 0.5634,1.427297 0.63853,1.615099 0.90145,1.615099 0.26292,0 0.45073,-0.338044 1.05169,-1.840462 l 5.18335,-12.995917 c 0.67608,-1.577539 0.78877,-1.765341 1.53997,-2.028264 V 22.59854 Z m 20.95875,14.423214 c -0.63853,0.525847 -1.08925,0.713649 -1.65266,0.713649 -0.86389,0 -1.12682,-0.525847 -1.12682,-2.178506 v -7.324289 c 0,-1.953144 -0.18779,-3.042397 -0.75121,-3.943848 -0.82632,-1.352176 -2.44142,-2.065825 -4.65749,-2.065825 -3.53068,0 -6.31015,1.840462 -6.31015,4.206771 0,0.86389 0.71364,1.615099 1.6151,1.615099 0.90145,0 1.69021,-0.751209 1.69021,-1.577539 0,-0.150241 -0.0376,-0.338044 -0.0751,-0.600967 -0.0751,-0.338044 -0.11268,-0.638528 -0.11268,-0.901451 0,-1.014132 1.20193,-1.840462 2.70435,-1.840462 1.84046,0 2.85459,1.089253 2.85459,3.117518 v 2.291187 c -5.74674,2.291188 -6.42283,2.629232 -8.03793,4.056529 -0.82633,0.75121 -1.35218,2.028265 -1.35218,3.26776 0,2.366309 1.65266,4.018969 3.94385,4.018969 1.65267,0 3.19264,-0.78877 5.48383,-2.741913 0.1878,1.990704 0.86389,2.741913 2.40387,2.741913 1.27706,0 2.06582,-0.450726 3.38044,-1.878023 z m -5.82187,-2.140946 c 0,1.126814 -0.1878,1.539979 -0.97658,1.990704 -0.939,0.525847 -1.95314,0.82633 -2.74191,0.82633 -1.31461,0 -2.36631,-1.277055 -2.36631,-2.892154 v -0.150242 c 0.0376,-2.253628 1.69023,-3.680925 6.0848,-5.220904 z m 6.0848,4.619936 h 9.01451 v -0.563407 c -2.51655,-0.07512 -3.11752,-0.600967 -3.19264,-2.817034 v -8.451102 c 0,-1.201935 1.57754,-3.079957 2.62923,-3.079957 0.22537,0 0.56341,0.187802 0.97657,0.563407 0.56341,0.563406 1.01413,0.751209 1.50242,0.751209 0.90145,0 1.46486,-0.638528 1.46486,-1.690221 0,-1.239495 -0.78877,-1.990704 -2.06583,-1.990704 -1.57753,0 -2.62923,0.82633 -4.50725,3.530683 v -3.455562 l -0.1878,-0.07512 c -2.10338,0.82633 -3.45557,1.352177 -5.55895,2.028265 v 0.600967 c 0.52585,-0.112681 0.86389,-0.150241 1.31462,-0.150241 0.93901,0 1.27705,0.600967 1.27705,2.253627 v 9.390113 c -0.0751,1.953144 -0.30048,2.178506 -2.66679,2.591671 z M 172.8635,33.34083 c -1.80289,2.854594 -3.418,3.943847 -5.82186,3.943847 -2.14095,0 -3.75605,-1.089253 -4.84531,-3.230198 -0.67608,-1.427298 -0.939,-2.629233 -1.01413,-4.957981 h 11.56862 c -0.30048,-2.441429 -0.67609,-3.530682 -1.6151,-4.732617 -1.12681,-1.352176 -2.85459,-2.140946 -4.80774,-2.140946 -1.87802,0 -3.64336,0.676088 -5.07065,1.953144 -1.76535,1.539978 -2.77948,4.20677 -2.77948,7.286727 0,5.183344 2.70435,8.413543 7.02381,8.413543 3.56824,0 6.38527,-2.216067 7.96281,-6.272596 z m -11.60617,-5.446266 c 0.41316,-2.929716 1.69021,-4.319452 3.9814,-4.319452 2.29119,0 3.19264,1.051692 3.68093,4.319452 z m 44.77207,5.258463 h -1.05169 c -1.8029,3.981409 -3.49313,4.92042 -8.86427,4.95798 h -1.01414 c -3.90627,-0.112681 -3.94384,-0.150241 -3.94384,-1.615099 v -9.277433 h 5.78431 c 3.15508,0.07512 3.64337,0.525847 4.13165,3.605804 h 0.86389 v -8.714025 h -0.86389 c -0.45073,3.042397 -0.97657,3.493122 -4.13165,3.568243 h -5.78431 v -8.33842 c 0.0376,-1.126814 0.1878,-1.277056 1.2395,-1.277056 h 5.07066 c 4.35701,0.07512 5.10822,0.600968 5.70919,3.943848 h 0.93901 l -0.11269,-5.371145 h -19.94459 v 0.713649 c 2.74191,0.187802 3.19263,0.676088 3.26775,3.38044 v 16.676842 c -0.0751,2.704352 -0.5634,3.230199 -3.26775,3.38044 v 0.713649 h 20.28264 z m 1.20194,6.347717 h 7.96281 v -0.563407 c -1.87802,-0.112681 -2.47899,-0.600967 -2.47899,-1.953143 V 26.429706 c 1.8029,-1.69022 2.62924,-2.140946 3.86873,-2.140946 1.84046,0 2.74191,1.164374 2.74191,3.643364 v 7.850135 c -0.0751,2.44143 -0.52585,3.042397 -2.36631,3.155078 v 0.563407 h 7.81258 v -0.563407 c -1.84047,-0.187802 -2.25363,-0.638527 -2.29119,-2.47899 v -8.601344 c 0,-3.530682 -1.65266,-5.634068 -4.43214,-5.634068 -1.72777,0 -2.89215,0.638528 -5.44626,3.042397 v -2.967276 l -0.26292,-0.07512 c -1.95315,0.713649 -3.2302,1.126814 -5.18335,1.690221 v 0.638528 c 0.26293,-0.112682 0.60097,-0.150242 1.01414,-0.150242 1.05169,0 1.38973,0.563407 1.38973,2.403869 V 36.1203 c -0.0376,2.216067 -0.45072,2.704353 -2.32874,2.817034 z M 242.01235,24.927288 V 23.46243 h -2.89215 c -0.78878,0 -1.31462,-0.112681 -2.06583,-0.375604 l -0.82633,-0.300484 c -0.97658,-0.375604 -2.02827,-0.563407 -3.00484,-0.563407 -3.49312,0 -6.27259,2.666792 -6.27259,6.122354 0,2.366308 0.97657,3.793606 3.49312,5.033101 l -0.97657,0.901451 c -0.78877,0.751209 -1.2395,1.164374 -1.35219,1.314616 -0.78876,0.82633 -1.01412,1.239495 -1.01412,1.878023 0,0.82633 0.41316,1.239495 1.9907,1.990704 -2.70435,1.953143 -3.68092,3.192638 -3.68092,4.582375 0,1.990704 2.89215,3.643363 6.49795,3.643363 2.81704,0 5.74675,-0.976571 7.6999,-2.55411 1.42729,-1.164374 2.06582,-2.366309 2.06582,-3.793606 0,-2.328748 -1.76534,-3.868726 -4.54481,-4.018968 l -4.8453,-0.225363 c -2.02827,-0.07512 -2.92971,-0.413165 -2.92971,-1.014132 0,-0.751209 1.23949,-2.065825 2.25362,-2.366309 1.35218,0.112682 2.06583,0.187803 2.14094,0.187803 1.38974,0 2.89216,-0.563407 4.05654,-1.57754 1.23949,-1.051693 1.8029,-2.366309 1.8029,-4.244331 0,-1.089253 -0.18781,-1.953144 -0.71365,-3.155078 z m -12.13203,14.648577 c 1.27705,0.262923 4.20677,0.488286 6.12235,0.488286 3.38044,0 4.61994,0.488286 4.61994,1.840462 0,2.178506 -2.8546,3.643364 -7.09893,3.643364 -3.34288,0 -5.48382,-1.089253 -5.48382,-2.741913 0,-0.863891 0.33804,-1.427297 1.84046,-3.230199 z m 0.1878,-12.770555 c 0,-2.216066 1.05169,-3.530682 2.77948,-3.530682 1.16437,0 2.14095,0.638528 2.74191,1.765341 0.71365,1.314616 1.12682,3.004836 1.12682,4.507254 0,2.103386 -1.0517,3.418002 -2.77948,3.418002 -2.32875,0 -3.86873,-2.44143 -3.86873,-6.047233 z m 13.67201,12.695434 h 8.90183 v -0.563407 c -2.479,-0.187802 -2.74192,-0.525846 -2.77948,-3.267759 V 22.335617 l -0.15024,-0.112682 -5.82187,2.065825 v 0.563407 l 0.30048,-0.03756 c 0.45073,-0.07512 0.90145,-0.112681 1.27706,-0.112681 0.90145,0 1.23949,0.600967 1.23949,2.253627 v 8.714022 c -0.0751,2.779473 -0.41316,3.155078 -2.96727,3.267759 z m 4.20677,-25.65379 c -1.01414,0 -1.87803,0.863891 -1.87803,1.915584 0,1.089253 0.82634,1.915583 1.87803,1.915583 1.12681,0 1.95314,-0.82633 1.95314,-1.915583 0,-1.089253 -0.86389,-1.915584 -1.95314,-1.915584 z m 6.31016,25.65379 h 7.96281 v -0.563407 c -1.87802,-0.112681 -2.47899,-0.600967 -2.47899,-1.953143 V 26.429706 c 1.80291,-1.69022 2.62923,-2.140946 3.86873,-2.140946 1.84046,0 2.74191,1.164374 2.74191,3.643364 v 7.850135 c -0.0751,2.44143 -0.52585,3.042397 -2.36631,3.155078 v 0.563407 h 7.81258 v -0.563407 c -1.84047,-0.187802 -2.25363,-0.638527 -2.29119,-2.47899 v -8.601344 c 0,-3.530682 -1.65266,-5.634068 -4.43214,-5.634068 -1.72778,0 -2.89215,0.638528 -5.44626,3.042397 v -2.967276 l -0.26292,-0.07512 c -1.95314,0.713649 -3.2302,1.126814 -5.18335,1.690221 v 0.638528 c 0.26292,-0.112682 0.60097,-0.150242 1.01413,-0.150242 1.0517,0 1.38974,0.563407 1.38974,2.403869 V 36.1203 c -0.0376,2.216067 -0.45072,2.704353 -2.32874,2.817034 z m 33.4288,-6.159914 c -1.80291,2.854594 -3.41801,3.943847 -5.82188,3.943847 -2.14094,0 -3.75604,-1.089253 -4.84529,-3.230198 -0.67609,-1.427298 -0.93901,-2.629233 -1.01413,-4.957981 h 11.56862 c -0.30049,-2.441429 -0.67609,-3.530682 -1.6151,-4.732617 -1.12681,-1.352176 -2.8546,-2.140946 -4.80774,-2.140946 -1.87802,0 -3.64337,0.676088 -5.07066,1.953144 -1.76534,1.539978 -2.77947,4.20677 -2.77947,7.286727 0,5.183344 2.70435,8.413543 7.0238,8.413543 3.56824,0 6.38528,-2.216067 7.96281,-6.272596 z m -11.60618,-5.446266 c 0.41316,-2.929716 1.69022,-4.319452 3.98141,-4.319452 2.29118,0 3.19263,1.051692 3.68092,4.319452 z m 28.28303,5.446266 c -1.80291,2.854594 -3.418,3.943847 -5.82187,3.943847 -2.14095,0 -3.75605,-1.089253 -4.8453,-3.230198 -0.67609,-1.427298 -0.93902,-2.629233 -1.01413,-4.957981 h 11.56862 c -0.30049,-2.441429 -0.67609,-3.530682 -1.6151,-4.732617 -1.12682,-1.352176 -2.8546,-2.140946 -4.80774,-2.140946 -1.87802,0 -3.64336,0.676088 -5.07067,1.953144 -1.76534,1.539978 -2.77947,4.20677 -2.77947,7.286727 0,5.183344 2.70436,8.413543 7.02381,8.413543 3.56824,0 6.38527,-2.216067 7.96282,-6.272596 z m -11.60619,-5.446266 c 0.41317,-2.929716 1.69023,-4.319452 3.98142,-4.319452 2.29118,0 3.19263,1.051692 3.68092,4.319452 z m 13.14617,11.60618 h 9.01451 v -0.563407 c -2.51655,-0.07512 -3.11752,-0.600967 -3.19263,-2.817034 v -8.451102 c 0,-1.201935 1.57753,-3.079957 2.62923,-3.079957 0.22536,0 0.5634,0.187802 0.97657,0.563407 0.56341,0.563406 1.01413,0.751209 1.50242,0.751209 0.90145,0 1.46485,-0.638528 1.46485,-1.690221 0,-1.239495 -0.78876,-1.990704 -2.06582,-1.990704 -1.57754,0 -2.62923,0.82633 -4.50725,3.530683 v -3.455562 l -0.18781,-0.07512 c -2.10338,0.82633 -3.45556,1.352177 -5.55894,2.028265 v 0.600967 c 0.52584,-0.112681 0.86389,-0.150241 1.31461,-0.150241 0.93901,0 1.27706,0.600967 1.27706,2.253627 v 9.390113 c -0.0751,1.953144 -0.30049,2.178506 -2.6668,2.591671 z" aria-label="Software Engineer" style="stroke-width:0.78251" />
<rect width="82.750374" height="2.3475285" x="138.62482" y="49.805515" style="stroke-width:0.78251" />
</svg>
