<svg viewBox="0 0 360 64" width="360" height="64" xmlns="http://www.w3.org/2000/svg">
<style>
    path { fill: #24292f}
    rect { fill: #cdc8bc}
    @media (prefers-color-scheme: dark) {
      path { fill: #dfe2e2; transition: 0.3s ease-in-out; }
      rect { fill: #ada89c; transition: 0.3s ease-in-out; }
    }
</style>
<path d="m 70.935638,15.261746 h -0.698917 c -0.133127,0.732199 -0.499226,1.13158 -1.065016,1.13158 -0.332818,0 -0.898607,-0.133128 -1.464397,-0.399381 -1.231426,-0.465945 -2.46285,-0.732199 -3.561148,-0.732199 -1.397834,0 -2.862231,0.565789 -3.960529,1.530961 -1.164862,1.031735 -1.763933,2.429568 -1.763933,4.160219 0,2.66254 1.464397,4.526318 5.191954,6.489942 2.396286,1.297989 4.126938,2.629259 4.958981,3.893966 0.299536,0.432663 0.465945,1.13158 0.465945,1.963624 0,2.196595 -1.664088,3.727556 -4.093656,3.727556 -2.995358,0 -5.058827,-1.830496 -6.722915,-5.890871 h -0.76548 l 0.998453,7.055733 h 0.732198 c 0.03328,-0.632354 0.432663,-1.098298 0.931889,-1.098298 0.3661,0 0.93189,0.133127 1.564243,0.366099 1.264707,0.499227 2.629259,0.76548 3.927247,0.76548 3.860684,0 6.789478,-2.629258 6.789478,-6.090561 0,-2.729104 -1.830496,-4.859136 -6.223688,-7.255423 -3.494584,-1.897059 -4.892418,-3.361457 -4.892418,-5.191953 0,-1.830497 1.397834,-3.061922 3.461303,-3.061922 1.497678,0 2.895512,0.632353 4.060374,1.830496 1.031734,1.065017 1.497678,1.930342 2.030187,3.893966 h 0.832044 z m 11.448936,7.188859 c -4.359909,0 -7.355267,3.195049 -7.355267,7.787931 0,4.526319 3.095204,7.854495 7.288705,7.854495 4.1935,0 7.388549,-3.494585 7.388549,-8.12075 0,-4.393191 -3.061922,-7.521676 -7.321987,-7.521676 z m -0.432662,0.931889 c 2.795667,0 4.759291,3.195048 4.759291,7.754649 0,3.794121 -1.497679,6.023999 -3.993811,6.023999 -1.297988,0 -2.529413,-0.798763 -3.22833,-2.130033 -0.931889,-1.730651 -1.464397,-4.060375 -1.464397,-6.423379 0,-3.161767 1.530961,-5.225236 3.927247,-5.225236 z m 19.037168,-0.599071 h -4.09366 v -3.860684 c 0,-1.963623 0.632354,-2.962076 1.897061,-2.962076 0.732198,0 1.164861,0.332818 1.763929,1.297988 0.53251,0.865326 0.93189,1.198143 1.49768,1.198143 0.79876,0 1.39784,-0.599071 1.39784,-1.364551 0,-1.198144 -1.4644,-2.06347 -3.461306,-2.06347 -2.09675,0 -3.827402,0.898608 -4.692727,2.396287 -0.865326,1.497679 -1.13158,2.695822 -1.164862,5.358363 h -2.729104 v 1.065015 h 2.729104 v 10.450473 c -0.06656,2.496131 -0.399381,2.862231 -2.762386,2.962076 v 0.499226 h 8.653261 v -0.499226 c -2.729108,-0.09985 -3.095207,-0.465945 -3.095207,-2.962076 V 23.848438 h 4.060377 z m 9.61844,0 h -3.36146 v -3.860684 c 0,-0.332817 -0.0666,-0.432662 -0.23297,-0.432662 -1.93034,2.795667 -2.9288,3.927246 -3.89397,4.493037 -0.3661,0.232972 -0.56579,0.432662 -0.56579,0.632352 0,0.09984 0.0333,0.166409 0.13313,0.232972 h 1.76393 v 10.01781 c 0,2.795667 0.99846,4.226783 2.96208,4.226783 1.63081,0 2.89551,-0.798762 3.99381,-2.529414 l -0.43267,-0.366099 c -0.7322,0.865326 -1.2647,1.164861 -1.9969,1.164861 -1.23143,0 -1.73065,-0.898607 -1.73065,-2.995358 v -9.518583 h 3.36146 z m 19.96906,0 v 0.499226 c 1.13158,0.232972 1.46441,0.465945 1.46441,1.031735 0,0.499225 -0.19969,1.297988 -0.5658,2.196595 l -2.99535,7.388551 -2.79567,-7.455114 c -0.56579,-1.530961 -0.56579,-1.530961 -0.56579,-1.963624 0,-0.732198 0.3661,-0.965171 1.93034,-1.198143 v -0.499226 h -6.7562 v 0.499226 c 1.23142,0.133127 1.6308,0.532508 2.29644,2.296441 0.16641,0.465944 0.46594,1.297988 0.66563,1.863778 l -3.02863,6.62307 -3.2949,-8.686539 c -0.13312,-0.332817 -0.19969,-0.665635 -0.19969,-0.998452 0,-0.698917 0.3661,-0.965171 1.53097,-1.098298 v -0.499226 h -5.99072 v 0.499226 c 0.76548,0.06656 1.03173,0.399381 1.76393,2.09675 l 4.49304,11.382361 c 0.39937,1.031734 0.66563,1.464397 0.86532,1.464397 0.16642,0 0.43266,-0.39938 0.83205,-1.297988 l 3.72755,-7.987622 3.02865,7.854495 c 0.49922,1.264707 0.56579,1.431115 0.79876,1.431115 0.23297,0 0.39938,-0.299535 0.93189,-1.630806 l 4.59288,-11.515487 c 0.59907,-1.397834 0.69892,-1.564243 1.36455,-1.797215 v -0.499226 z m 18.57123,12.780194 c -0.56579,0.465945 -0.96516,0.632354 -1.46439,0.632354 -0.76548,0 -0.99846,-0.465945 -0.99846,-1.930342 v -6.489943 c 0,-1.730652 -0.1664,-2.695822 -0.66564,-3.494585 -0.73219,-1.198143 -2.1633,-1.830496 -4.12693,-1.830496 -3.12848,0 -5.59133,1.630806 -5.59133,3.727557 0,0.76548 0.63235,1.431115 1.43112,1.431115 0.79876,0 1.49767,-0.665635 1.49767,-1.397834 0,-0.133126 -0.0333,-0.299536 -0.0666,-0.532508 -0.0665,-0.299536 -0.0998,-0.56579 -0.0998,-0.798762 0,-0.898607 1.06501,-1.630806 2.39628,-1.630806 1.63081,0 2.52941,0.965171 2.52941,2.762386 v 2.030187 c -5.0921,2.030187 -5.69117,2.329723 -7.12229,3.594429 -0.7322,0.665636 -1.19814,1.797216 -1.19814,2.895514 0,2.096751 1.46439,3.561148 3.49458,3.561148 1.46441,0 2.82895,-0.698917 4.85914,-2.429568 0.16641,1.763933 0.76548,2.429568 2.13003,2.429568 1.13159,0 1.8305,-0.399382 2.99536,-1.664088 z m -5.15867,-1.89706 c 0,0.998453 -0.1664,1.364552 -0.86533,1.763933 -0.83203,0.465945 -1.73065,0.732199 -2.42957,0.732199 -1.16485,0 -2.09675,-1.13158 -2.09675,-2.562695 v -0.133127 c 0.0333,-1.996906 1.49769,-3.261613 5.39165,-4.626165 z m 5.39165,4.093656 h 7.98763 v -0.499226 c -2.22988,-0.06656 -2.76239,-0.532508 -2.82896,-2.496132 V 27.27646 c 0,-1.065017 1.39784,-2.729104 2.32973,-2.729104 0.19969,0 0.49923,0.166408 0.86532,0.499226 0.49923,0.499226 0.89861,0.665635 1.33127,0.665635 0.79876,0 1.29799,-0.56579 1.29799,-1.497679 0,-1.098298 -0.69891,-1.763933 -1.8305,-1.763933 -1.39782,0 -2.32972,0.732198 -3.99381,3.128485 v -3.061922 l -0.1664,-0.06656 c -1.86378,0.732198 -3.06193,1.198143 -4.9257,1.797215 v 0.532508 c 0.46594,-0.09984 0.76548,-0.133126 1.16486,-0.133126 0.83204,0 1.13158,0.532507 1.13158,1.996905 v 8.320438 c -0.0666,1.730652 -0.26626,1.930342 -2.36301,2.296441 z m 24.29567,-5.458208 c -1.59752,2.529413 -3.02864,3.494584 -5.15867,3.494584 -1.89706,0 -3.32818,-0.965171 -4.29335,-2.86223 -0.59907,-1.264707 -0.83204,-2.329724 -0.89861,-4.393193 h 10.25078 c -0.26625,-2.163314 -0.59907,-3.128484 -1.43111,-4.193501 -0.99845,-1.198143 -2.52941,-1.89706 -4.26007,-1.89706 -1.66409,0 -3.22833,0.599071 -4.49303,1.730651 -1.56425,1.364552 -2.46285,3.727556 -2.46285,6.45666 0,4.592884 2.39628,7.455115 6.22369,7.455115 3.16176,0 5.65789,-1.963624 7.05573,-5.558054 z M 163.3924,27.47615 c 0.3661,-2.595977 1.49767,-3.827401 3.52786,-3.827401 2.03019,0 2.82895,0.931888 3.26162,3.827401 z m 39.67186,4.659446 h -0.93188 c -1.59753,3.527867 -3.09521,4.35991 -7.8545,4.393192 h -0.89861 c -3.46129,-0.09985 -3.49458,-0.133126 -3.49458,-1.431115 v -8.220595 h 5.12539 c 2.79567,0.06656 3.22833,0.465945 3.66099,3.195049 h 0.76548 V 22.35076 h -0.76548 c -0.39938,2.695822 -0.86532,3.095203 -3.66099,3.161767 h -5.12539 v -7.38855 c 0.0333,-0.998453 0.16641,-1.13158 1.0983,-1.13158 h 4.49304 c 3.86068,0.06656 4.52631,0.532509 5.05882,3.494585 h 0.83205 l -0.0999,-4.759291 h -17.6726 v 0.632353 c 2.42957,0.166409 2.82894,0.599072 2.89551,2.995358 v 14.7771 c -0.0666,2.396286 -0.49922,2.862231 -2.89551,2.995357 v 0.632354 h 17.97215 z m 1.06503,5.624617 h 7.05572 v -0.499226 c -1.66408,-0.09985 -2.19659,-0.532508 -2.19659,-1.730651 v -9.352174 c 1.59752,-1.497679 2.32973,-1.897061 3.42802,-1.897061 1.6308,0 2.42957,1.031735 2.42957,3.228331 v 6.955887 c -0.0666,2.163315 -0.46595,2.695823 -2.09676,2.795668 v 0.499226 h 6.92261 v -0.499226 c -1.63081,-0.166409 -1.9969,-0.56579 -2.03019,-2.196596 v -7.621523 c 0,-3.128484 -1.46439,-4.992263 -3.92725,-4.992263 -1.53095,0 -2.56269,0.56579 -4.82585,2.695822 v -2.629259 l -0.23297,-0.06656 c -1.73065,0.632353 -2.86223,0.998453 -4.59289,1.497679 v 0.56579 c 0.23298,-0.09985 0.53251,-0.133127 0.89862,-0.133127 0.93188,0 1.23142,0.499227 1.23142,2.130033 v 8.253871 c -0.0333,1.963624 -0.39938,2.396287 -2.06346,2.496132 z m 30.81893,-12.913321 v -1.297989 h -2.56269 c -0.69893,0 -1.16487,-0.09984 -1.8305,-0.332817 l -0.7322,-0.266255 c -0.86534,-0.332817 -1.79722,-0.499226 -2.66255,-0.499226 -3.0952,0 -5.55804,2.363004 -5.55804,5.424926 0,2.09675 0.86532,3.361458 3.0952,4.459756 l -0.86533,0.798762 c -0.69891,0.665635 -1.0983,1.031734 -1.19815,1.164862 -0.69891,0.732198 -0.8986,1.098297 -0.8986,1.664088 0,0.732198 0.3661,1.098298 1.76393,1.763933 -2.39628,1.73065 -3.26161,2.828948 -3.26161,4.060374 0,1.763933 2.56269,3.228329 5.75774,3.228329 2.49614,0 5.09211,-0.865325 6.82276,-2.263159 1.26471,-1.031734 1.8305,-2.096751 1.8305,-3.361457 0,-2.063469 -1.56424,-3.42802 -4.02709,-3.561148 l -4.29335,-0.19969 c -1.79722,-0.06656 -2.59597,-0.3661 -2.59597,-0.898608 0,-0.665635 1.09829,-1.830496 1.9969,-2.096751 1.19814,0.09985 1.8305,0.16641 1.89705,0.16641 1.23143,0 2.5627,-0.499227 3.59444,-1.397835 1.0983,-0.931889 1.59752,-2.096751 1.59752,-3.760838 0,-0.965171 -0.16641,-1.730652 -0.63235,-2.795667 z m -10.75001,12.979885 c 1.13157,0.232972 3.72755,0.432663 5.42492,0.432663 2.99536,0 4.09366,0.432662 4.09366,1.630805 0,1.930342 -2.52942,3.228331 -6.29026,3.228331 -2.96207,0 -4.85913,-0.965171 -4.85913,-2.429568 0,-0.765481 0.29954,-1.264707 1.63081,-2.862231 z m 0.1664,-11.315798 c 0,-1.963623 0.93189,-3.128485 2.46286,-3.128485 1.03173,0 1.89706,0.56579 2.42957,1.564242 0.63235,1.164862 0.99845,2.662541 0.99845,3.993811 0,1.863779 -0.93189,3.02864 -2.46285,3.02864 -2.06347,0 -3.42803,-2.163314 -3.42803,-5.358362 z m 12.11457,11.249234 h 7.88778 v -0.499226 c -2.19661,-0.166409 -2.42958,-0.465945 -2.46286,-2.895513 V 22.550451 l -0.13312,-0.09985 -5.15868,1.830496 v 0.499227 l 0.26625,-0.03328 c 0.39939,-0.06656 0.79877,-0.09984 1.13159,-0.09984 0.79876,0 1.09829,0.532508 1.09829,1.996905 v 7.721364 c -0.0665,2.46285 -0.36609,2.795668 -2.62925,2.895513 z m 3.72755,-22.73144 c -0.89861,0 -1.66409,0.765481 -1.66409,1.697371 0,0.96517 0.73221,1.697369 1.66409,1.697369 0.99845,0 1.73065,-0.732199 1.73065,-1.697369 0,-0.965171 -0.76548,-1.697371 -1.73065,-1.697371 z m 5.59134,22.73144 h 7.05573 v -0.499226 c -1.66409,-0.09985 -2.1966,-0.532508 -2.1966,-1.730651 v -9.352174 c 1.59754,-1.497679 2.32973,-1.897061 3.42803,-1.897061 1.6308,0 2.42956,1.031735 2.42956,3.228331 v 6.955887 c -0.0665,2.163315 -0.46594,2.695823 -2.09675,2.795668 v 0.499226 h 6.92261 v -0.499226 c -1.63081,-0.166409 -1.99691,-0.56579 -2.03019,-2.196596 v -7.621523 c 0,-3.128484 -1.4644,-4.992263 -3.92725,-4.992263 -1.53096,0 -2.56269,0.56579 -4.82585,2.695822 v -2.629259 l -0.23297,-0.06656 c -1.73065,0.632353 -2.86223,0.998453 -4.59289,1.497679 v 0.56579 c 0.23297,-0.09985 0.53251,-0.133127 0.89861,-0.133127 0.93189,0 1.23142,0.499227 1.23142,2.130033 v 8.253871 c -0.0333,1.963624 -0.39937,2.396287 -2.06346,2.496132 z m 29.62076,-5.458208 c -1.59753,2.529413 -3.02864,3.494584 -5.15868,3.494584 -1.89705,0 -3.32817,-0.965171 -4.29334,-2.86223 -0.59907,-1.264707 -0.83204,-2.329724 -0.8986,-4.393193 h 10.25078 c -0.26626,-2.163314 -0.59907,-3.128484 -1.43112,-4.193501 -0.99845,-1.198143 -2.52942,-1.89706 -4.26006,-1.89706 -1.66409,0 -3.22834,0.599071 -4.49304,1.730651 -1.56424,1.364552 -2.46285,3.727556 -2.46285,6.45666 0,4.592884 2.39629,7.455115 6.22369,7.455115 3.16176,0 5.6579,-1.963624 7.05572,-5.558054 z M 265.13477,27.47615 c 0.36609,-2.595977 1.49768,-3.827401 3.52787,-3.827401 2.03018,0 2.82894,0.931888 3.26161,3.827401 z m 25.06117,4.825855 c -1.59753,2.529413 -3.02864,3.494584 -5.15867,3.494584 -1.89707,0 -3.32818,-0.965171 -4.29335,-2.86223 -0.59907,-1.264707 -0.83205,-2.329724 -0.89861,-4.393193 h 10.25079 c -0.26626,-2.163314 -0.59908,-3.128484 -1.43112,-4.193501 -0.99846,-1.198143 -2.52942,-1.89706 -4.26007,-1.89706 -1.66408,0 -3.22832,0.599071 -4.49304,1.730651 -1.56424,1.364552 -2.46285,3.727556 -2.46285,6.45666 0,4.592884 2.39629,7.455115 6.22369,7.455115 3.16177,0 5.6579,-1.963624 7.05574,-5.558054 z M 279.91187,27.47615 c 0.3661,-2.595977 1.49769,-3.827401 3.52788,-3.827401 2.03018,0 2.82894,0.931888 3.2616,3.827401 z m 11.64862,10.284063 h 7.98763 v -0.499226 c -2.22988,-0.06656 -2.76239,-0.532508 -2.82895,-2.496132 V 27.27646 c 0,-1.065017 1.39783,-2.729104 2.32973,-2.729104 0.19968,0 0.49922,0.166408 0.86532,0.499226 0.49923,0.499226 0.89861,0.665635 1.33127,0.665635 0.79876,0 1.29798,-0.56579 1.29798,-1.497679 0,-1.098298 -0.69891,-1.763933 -1.83049,-1.763933 -1.39783,0 -2.32972,0.732198 -3.99381,3.128485 v -3.061922 l -0.16641,-0.06656 c -1.86378,0.732198 -3.06192,1.198143 -4.9257,1.797215 v 0.532508 c 0.46594,-0.09984 0.76548,-0.133126 1.16486,-0.133126 0.83204,0 1.13158,0.532507 1.13158,1.996905 v 8.320438 c -0.0665,1.730652 -0.26625,1.930342 -2.36301,2.296441 z" aria-label="Software Engineer" style="stroke-width:0.69337" />
<rect width="73.323868" height="2.0801098" x="143.33807" y="46.891117" style="stroke-width:0.69337" />
</svg>
