<svg viewBox="0 0 360 64" width="360" height="64" xmlns="http://www.w3.org/2000/svg">
  <style>
    path { fill: #24292f}
    rect { fill: #cdc8bc}
    @media (prefers-color-scheme: dark) {
      path { fill: #dfe2e2; transition: 0.3s ease-in-out; }
      rect { fill: #ada89c; transition: 0.3s ease-in-out; }
    }
  </style>
<path d="m 22.703929,6.439001 h -1.008 c -0.192,1.056 -0.72,1.632 -1.536,1.632 -0.48,0 -1.296,-0.192 -2.112,-0.576 -1.776,-0.672 -3.552,-1.056 -5.136,-1.056 -2.016,0 -4.128,0.816 -5.712,2.208 -1.68,1.488 -2.544,3.504 -2.544,6 0,3.84 2.112,6.528 7.488,9.36 3.456,1.872 5.952,3.792 7.152,5.616 0.432,0.624 0.672,1.632 0.672,2.832 0,3.168 -2.4,5.376 -5.904,5.376 -4.32,0 -7.296,-2.64 -9.696,-8.496 h -1.104 l 1.44,10.176 h 1.056 c 0.048,-0.912 0.624,-1.584 1.344,-1.584 0.528,0 1.344,0.192 2.256,0.528 1.824,0.72 3.792,1.104 5.664,1.104 5.568,0 9.792,-3.792 9.792,-8.784 0,-3.936 -2.64,-7.008 -8.976,-10.464 -5.04,-2.736 -7.056,-4.848 -7.056,-7.488 0,-2.64 2.016,-4.416 4.992,-4.416 2.16,0 4.176,0.912 5.856,2.64 1.488,1.536 2.16,2.784 2.928,5.616 h 1.2 z m 16.512018,10.368 c -6.288,0 -10.608,4.608 -10.608,11.232 0,6.528 4.464,11.328 10.512,11.328 6.048,0 10.656,-5.04 10.656,-11.712 0,-6.336 -4.416,-10.848 -10.56,-10.848 z m -0.624,1.344 c 4.032,0 6.864,4.608 6.864,11.184 0,5.472 -2.16,8.688 -5.76,8.688 -1.872,0 -3.648,-1.152 -4.656,-3.072 -1.344,-2.496 -2.112,-5.856 -2.112,-9.264 0,-4.56 2.208,-7.536 5.664,-7.536 z m 27.456,-0.864 h -5.904 v -5.568 c 0,-2.832 0.912,-4.272 2.736,-4.272 1.056,0 1.68,0.48 2.544,1.872 0.768,1.248 1.344,1.728 2.16,1.728 1.152,0 2.016,-0.864 2.016,-1.968 0,-1.728 -2.112,-2.976 -4.992,-2.976 -3.024,0 -5.52,1.296 -6.768,3.456 -1.248,2.16 -1.632,3.888 -1.68,7.728 h -3.936 v 1.536 h 3.936 v 15.072 c -0.096,3.6 -0.576,4.128 -3.984,4.272 v 0.72 h 12.48 v -0.72 c -3.936,-0.144 -4.464,-0.672 -4.464,-4.272 v -15.072 h 5.856 z m 13.872019,0 h -4.848 v -5.568 c 0,-0.48 -0.096,-0.624 -0.336,-0.624 -2.784,4.032 -4.224,5.664 -5.616,6.48 -0.528,0.336 -0.816,0.624 -0.816,0.912 0,0.144 0.048,0.24 0.192,0.336 h 2.544 v 14.448 c 0,4.032 1.44,6.096 4.272,6.096 2.352,0 4.176,-1.152 5.76,-3.648 l -0.624,-0.528 c -1.056,1.248 -1.824,1.68 -2.88,1.68 -1.776,0 -2.496,-1.296 -2.496,-4.32 v -13.728 h 4.848 z m 28.800024,0 v 0.72 c 1.632,0.336 2.112,0.672 2.112,1.488 0,0.72 -0.288,1.872 -0.816,3.168 l -4.32,10.656 -4.032,-10.752 c -0.816,-2.208 -0.816,-2.208 -0.816,-2.832 0,-1.056 0.528,-1.392 2.784,-1.728 v -0.72 h -9.744005 v 0.72 c 1.776,0.192 2.352,0.768 3.312,3.312 0.24,0.672 0.672,1.872 0.96,2.688 l -4.368,9.552 -4.752,-12.528 c -0.192,-0.48 -0.288,-0.96 -0.288,-1.44 0,-1.008 0.528,-1.392 2.208,-1.584 v -0.72 h -8.64 v 0.72 c 1.104,0.096 1.488,0.576 2.544,3.024 l 6.48,16.416 c 0.576,1.488 0.96,2.112 1.248,2.112 0.24,0 0.624,-0.576 1.2,-1.872 l 5.376,-11.52 4.368005,11.328 c 0.72,1.824 0.816,2.064 1.152,2.064 0.336,0 0.576,-0.432 1.344,-2.352 l 6.624,-16.608 c 0.864,-2.016 1.008,-2.256 1.968,-2.592 v -0.72 z m 26.78401,18.432 c -0.816,0.672 -1.392,0.912 -2.112,0.912 -1.104,0 -1.44,-0.672 -1.44,-2.784 v -9.36 c 0,-2.496 -0.24,-3.888 -0.96,-5.04 -1.056,-1.728 -3.12,-2.64 -5.952,-2.64 -4.512,0 -8.064,2.352 -8.064,5.376 0,1.104 0.912,2.064 2.064,2.064 1.152,0 2.16,-0.96 2.16,-2.016 0,-0.192 -0.048,-0.432 -0.096,-0.768 -0.096,-0.432 -0.144,-0.816 -0.144,-1.152 0,-1.296 1.536,-2.352 3.456,-2.352 2.352,0 3.648,1.392 3.648,3.984 v 2.928 c -7.344,2.928 -8.208,3.36 -10.272,5.184 -1.056,0.96 -1.728,2.592 -1.728,4.176 0,3.024 2.112,5.136 5.04,5.136 2.112,0 4.08,-1.008 7.008,-3.504 0.24,2.544 1.104,3.504 3.072,3.504 1.632,0 2.64,-0.576 4.32,-2.4 z m -7.44,-2.736 c 0,1.44 -0.24,1.968 -1.248,2.544 -1.2,0.672 -2.496,1.056 -3.504,1.056 -1.68,0 -3.024,-1.632 -3.024,-3.696 v -0.192 c 0.048,-2.88 2.16,-4.704 7.776,-6.672 z m 7.77601,5.904 h 11.52 v -0.72 c -3.216,-0.096 -3.984,-0.768 -4.08,-3.6 v -10.8 c 0,-1.536 2.016,-3.936 3.36,-3.936 0.288,0 0.72,0.24 1.248,0.72 0.72,0.72 1.296,0.96 1.92,0.96 1.152,0 1.872,-0.816 1.872,-2.16 0,-1.584 -1.008,-2.544 -2.64,-2.544 -2.016,0 -3.36,1.056 -5.76,4.512 v -4.416 l -0.24,-0.096 c -2.688,1.056 -4.416,1.728 -7.104,2.592 v 0.768 c 0.672,-0.144 1.104,-0.192 1.68,-0.192 1.2,0 1.632,0.768 1.632,2.88 v 12 c -0.096,2.496 -0.384,2.784 -3.408,3.312 z m 35.03998,-7.872 c -2.304,3.648 -4.368,5.04 -7.44,5.04 -2.736,0 -4.8,-1.392 -6.192,-4.128 -0.864,-1.824 -1.2,-3.36 -1.296,-6.336 h 14.784 c -0.384,-3.12 -0.864,-4.512 -2.064,-6.048 -1.44,-1.728 -3.648,-2.736 -6.144,-2.736 -2.4,0 -4.656,0.864 -6.48,2.496 -2.256,1.968 -3.552,5.376 -3.552,9.312 0,6.624 3.456,10.752 8.976,10.752 4.56,0 8.16,-2.832 10.176,-8.016 z m -14.832,-6.96 c 0.528,-3.744 2.16,-5.52 5.088,-5.52 2.928,0 4.08,1.344 4.704,5.52 z m 57.21602,6.72 h -1.344 c -2.304,5.088 -4.464,6.288 -11.328,6.336 h -1.296 c -4.992,-0.144 -5.04,-0.192 -5.04,-2.064 v -11.856 h 7.392 c 4.032,0.096 4.656,0.672 5.28,4.608 h 1.104 v -11.136 h -1.104 c -0.576,3.888 -1.248,4.464 -5.28,4.56 h -7.392 v -10.656 c 0.048,-1.44 0.24,-1.632 1.584,-1.632 h 6.48 c 5.568,0.096 6.528,0.768 7.296,5.04 h 1.2 l -0.144,-6.864 h -25.488 v 0.912 c 3.504,0.24 4.08,0.864 4.176,4.32 v 21.312 c -0.096,3.456 -0.72,4.128 -4.176,4.32 v 0.912 h 25.92 z m 1.536,8.112 h 10.176 v -0.72 c -2.4,-0.144 -3.168,-0.768 -3.168,-2.496 v -13.488 c 2.304,-2.16 3.36,-2.736 4.944,-2.736 2.352,0 3.504,1.488 3.504,4.656 v 10.032 c -0.096,3.12 -0.672,3.888 -3.024,4.032 v 0.72 h 9.984 v -0.72 c -2.352,-0.24 -2.88,-0.816 -2.928,-3.168 v -10.992 c 0,-4.512 -2.112,-7.2 -5.664,-7.2 -2.208,0 -3.696,0.816 -6.96,3.888 v -3.792 l -0.336,-0.096 c -2.496,0.912 -4.128,1.44 -6.624,2.16 v 0.816 c 0.336,-0.144 0.768,-0.192 1.296,-0.192 1.344,0 1.776,0.72 1.776,3.072 v 11.904 c -0.048,2.832 -0.576,3.456 -2.976,3.6 z m 44.44804,-18.624 v -1.872 h -3.696 c -1.008,0 -1.68,-0.144 -2.64,-0.48 l -1.056,-0.384 c -1.248,-0.48 -2.592,-0.72 -3.84,-0.72 -4.464,0 -8.016,3.408 -8.016,7.824 0,3.024 1.248,4.848 4.464,6.432 l -1.248,1.152 c -1.008,0.96 -1.584,1.488 -1.728,1.68 -1.008,1.056 -1.296,1.584 -1.296,2.4 0,1.056 0.528,1.584 2.544,2.544 -3.456,2.496 -4.704,4.08 -4.704,5.856 0,2.544 3.696,4.656 8.304,4.656 3.6,0 7.344,-1.248 9.84,-3.264 1.824,-1.488 2.64,-3.024 2.64,-4.848 0,-2.976 -2.256,-4.944 -5.808,-5.136 l -6.192,-0.288 c -2.592,-0.096 -3.744,-0.528 -3.744,-1.296 0,-0.96 1.584,-2.64 2.88,-3.024 1.728,0.144 2.64,0.24 2.736,0.24 1.776,0 3.696,-0.72 5.184,-2.016 1.584,-1.344 2.304,-3.024 2.304,-5.424 0,-1.392 -0.24,-2.496 -0.912,-4.032 z m -15.504,18.72 c 1.632,0.336 5.376,0.624 7.824,0.624 4.32,0 5.904,0.624 5.904,2.352 0,2.784 -3.648,4.656 -9.072,4.656 -4.272,0 -7.008,-1.392 -7.008,-3.504 0,-1.104 0.432,-1.824 2.352,-4.128 z m 0.24,-16.32 c 0,-2.832 1.344,-4.512 3.552,-4.512 1.488,0 2.736,0.816 3.504,2.256 0.912,1.68 1.44,3.84 1.44,5.76 0,2.688 -1.344,4.368 -3.552,4.368 -2.976,0 -4.944,-3.12 -4.944,-7.728 z m 17.472,16.224 h 11.376 v -0.72 c -3.168,-0.24 -3.504,-0.672 -3.552,-4.176 v -17.04 l -0.192,-0.144 -7.44,2.64 v 0.72 l 0.384,-0.048 c 0.576,-0.096 1.152,-0.144 1.632,-0.144 1.152,0 1.584,0.768 1.584,2.88 v 11.136 c -0.096,3.552 -0.528,4.032 -3.792,4.176 z m 5.376,-32.784 c -1.296,0 -2.4,1.104 -2.4,2.448 0,1.392 1.056,2.448 2.4,2.448 1.44,0 2.496,-1.056 2.496,-2.448 0,-1.392 -1.104,-2.448 -2.496,-2.448 z m 8.064,32.784 h 10.176 v -0.72 c -2.4,-0.144 -3.168,-0.768 -3.168,-2.496 v -13.488 c 2.304,-2.16 3.36,-2.736 4.944,-2.736 2.352,0 3.504,1.488 3.504,4.656 v 10.032 c -0.096,3.12 -0.672,3.888 -3.024,4.032 v 0.72 h 9.984 v -0.72 c -2.352,-0.24 -2.88,-0.816 -2.928,-3.168 v -10.992 c 0,-4.512 -2.112,-7.2 -5.664,-7.2 -2.208,0 -3.696,0.816 -6.96,3.888 v -3.792 l -0.336,-0.096 c -2.496,0.912 -4.128,1.44 -6.624,2.16 v 0.816 c 0.336,-0.144 0.768,-0.192 1.296,-0.192 1.344,0 1.776,0.72 1.776,3.072 v 11.904 c -0.048,2.832 -0.576,3.456 -2.976,3.6 z m 42.72,-7.872 c -2.304,3.648 -4.368,5.04 -7.44,5.04 -2.736,0 -4.8,-1.392 -6.192,-4.128 -0.864,-1.824 -1.2,-3.36 -1.296,-6.336 h 14.784 c -0.384,-3.12 -0.864,-4.512 -2.064,-6.048 -1.44,-1.728 -3.648,-2.736 -6.144,-2.736 -2.4,0 -4.656,0.864 -6.48,2.496 -2.256,1.968 -3.552,5.376 -3.552,9.312 0,6.624 3.456,10.752 8.976,10.752 4.56,0 8.16,-2.832 10.176,-8.016 z m -14.832,-6.96 c 0.528,-3.744 2.16,-5.52 5.088,-5.52 2.928,0 4.08,1.344 4.704,5.52 z m 36.14401,6.96 c -2.304,3.648 -4.368,5.04 -7.44,5.04 -2.736,0 -4.8,-1.392 -6.192,-4.128 -0.864,-1.824 -1.2,-3.36 -1.296,-6.336 h 14.784 c -0.384,-3.12 -0.864,-4.512 -2.064,-6.048 -1.44,-1.728 -3.648,-2.736 -6.144,-2.736 -2.4,0 -4.656,0.864 -6.48,2.496 -2.256,1.968 -3.552,5.376 -3.552,9.312 0,6.624 3.456,10.752 8.976,10.752 4.56,0 8.16,-2.832 10.176,-8.016 z m -14.832,-6.96 c 0.528,-3.744 2.16,-5.52 5.088,-5.52 2.928,0 4.08,1.344 4.704,5.52 z m 16.80001,14.832 h 11.52 v -0.72 c -3.216,-0.096 -3.984,-0.768 -4.08,-3.6 v -10.8 c 0,-1.536 2.016,-3.936 3.36,-3.936 0.288,0 0.72,0.24 1.248,0.72 0.72,0.72 1.296,0.96 1.92,0.96 1.152,0 1.872,-0.816 1.872,-2.16 0,-1.584 -1.008,-2.544 -2.64,-2.544 -2.016,0 -3.36,1.056 -5.76,4.512 v -4.416 l -0.24,-0.096 c -2.688,1.056 -4.416,1.728 -7.104,2.592 v 0.768 c 0.672,-0.144 1.104,-0.192 1.68,-0.192 1.2,0 1.632,0.768 1.632,2.88 v 12 c -0.096,2.496 -0.384,2.784 -3.408,3.312 z"
aria-label="Software Engineer" />
<rect width="105.75" height="3" x="127.125" y="45.5" />
</svg>
