<svg viewBox="0 0 360 64" width="360" height="64" xmlns="http://www.w3.org/2000/svg">
  <style>
    path { fill: #24292f}
    rect { fill: #cdc8bc}
    @media (prefers-color-scheme: dark) {
      path { fill: #dfe2e2; transition: 0.3s ease-in-out; }
      rect { fill: #ada89c; transition: 0.3s ease-in-out; }
    }
  </style>
  <path
     d="m 38.422226,11.041789 h -0.907273 c -0.172813,0.950476 -0.648051,1.468917 -1.38251,1.468917 -0.432035,0 -1.166493,-0.172814 -1.900952,-0.518441 -1.598528,-0.604849 -3.197055,-0.950476 -4.622769,-0.950476 -1.814545,0 -3.715497,0.734458 -5.141211,1.987359 -1.512121,1.339307 -2.289783,3.153852 -2.289783,5.400431 0,3.456276 1.900952,5.875669 6.739739,8.424673 3.110648,1.684935 5.357228,3.413073 6.437314,5.054804 0.388831,0.561645 0.604848,1.468917 0.604848,2.549004 0,2.851427 -2.160172,4.838786 -5.314024,4.838786 -3.888311,0 -6.566925,-2.37619 -8.727098,-7.647011 h -0.993679 l 1.296104,9.159132 h 0.950475 c 0.0432,-0.820866 0.561645,-1.425714 1.209697,-1.425714 0.475238,0 1.209697,0.172814 2.030562,0.475238 1.641732,0.648052 3.413073,0.993679 5.098008,0.993679 5.0116,0 8.813504,-3.413072 8.813504,-7.906231 0,-3.542683 -2.37619,-6.307704 -8.079046,-9.418353 -4.536362,-2.462596 -6.350907,-4.363548 -6.350907,-6.739738 0,-2.37619 1.814545,-3.974718 4.493159,-3.974718 1.944155,0 3.7587,0.820866 5.270821,2.37619 1.339307,1.382511 1.944155,2.5058 2.635411,5.054804 h 1.080086 z m 14.862003,9.331945 c -5.659652,0 -9.547962,4.147532 -9.547962,10.109608 0,5.875669 4.017921,10.196015 9.461556,10.196015 5.443634,0 9.591166,-4.536363 9.591166,-10.541643 0,-5.702855 -3.974718,-9.76398 -9.50476,-9.76398 z m -0.561644,1.209697 c 3.629089,0 6.178093,4.147531 6.178093,10.066404 0,4.925194 -1.944155,7.819825 -5.184414,7.819825 -1.684935,0 -3.283462,-1.036883 -4.190735,-2.765021 -1.209697,-2.246579 -1.900952,-5.270821 -1.900952,-8.338266 0,-4.104328 1.987359,-6.782942 5.098008,-6.782942 z m 24.712374,-0.777662 h -5.314025 v -5.011601 c 0,-2.549003 0.820866,-3.845107 2.462597,-3.845107 0.950476,0 1.512121,0.432035 2.289783,1.684935 0.691255,1.12329 1.209697,1.555324 1.944155,1.555324 1.036883,0 1.814545,-0.777662 1.814545,-1.771341 0,-1.555325 -1.900952,-2.678614 -4.493159,-2.678614 -2.721817,0 -4.968397,1.166493 -6.091686,3.110648 -1.12329,1.944155 -1.468918,3.49948 -1.512121,6.955756 h -3.542683 v 1.38251 h 3.542683 v 13.565884 c -0.08641,3.240259 -0.518442,3.715497 -3.585887,3.845107 v 0.648052 H 76.182059 V 39.59927 C 72.639376,39.46966 72.164138,38.994422 72.164138,35.754163 V 22.188279 h 5.270821 z m 12.485813,0 h -4.36355 v -5.011601 c 0,-0.432034 -0.0864,-0.561644 -0.30242,-0.561644 -2.5058,3.62909 -3.801905,5.098007 -5.054805,5.832466 -0.475238,0.302424 -0.734459,0.561644 -0.734459,0.820865 0,0.12961 0.0432,0.216017 0.172814,0.302424 h 2.289783 v 13.004239 c 0,3.62909 1.296107,5.486839 3.845107,5.486839 2.11697,0 3.7587,-1.036883 5.18441,-3.283463 l -0.56164,-0.475238 c -0.95048,1.12329 -1.64173,1.512121 -2.59221,1.512121 -1.59853,0 -2.24658,-1.166493 -2.24658,-3.888311 V 22.188279 h 4.36355 z m 25.922088,0 v 0.648052 c 1.46892,0.302424 1.90096,0.604848 1.90096,1.339307 0,0.648051 -0.25922,1.684934 -0.73446,2.851427 l -3.88831,9.591167 -3.62909,-9.677573 c -0.73446,-1.987359 -0.73446,-1.987359 -0.73446,-2.549004 0,-0.950476 0.47524,-1.2529 2.5058,-1.555324 v -0.648052 h -8.77031 v 0.648052 c 1.59853,0.172813 2.11697,0.691255 2.98104,2.981038 0.21602,0.604848 0.60485,1.684934 0.86407,2.419393 l -3.93151,8.597487 -4.277148,-11.276101 c -0.17281,-0.432034 -0.25922,-0.864069 -0.25922,-1.296103 0,-0.907273 0.47524,-1.252901 1.98736,-1.425714 v -0.648052 h -7.77662 v 0.648052 c 0.99368,0.08641 1.33931,0.518441 2.28978,2.721817 l 5.832468,14.77558 c 0.51844,1.339307 0.86407,1.900952 1.12329,1.900952 0.21602,0 0.56164,-0.518441 1.08009,-1.684934 l 4.83878,-10.368829 3.93152,10.196015 c 0.64805,1.641731 0.73446,1.857748 1.03688,1.857748 0.30243,0 0.51845,-0.388831 1.2097,-2.116969 l 5.96208,-14.948394 c 0.77766,-1.814545 0.90727,-2.030562 1.77134,-2.332986 v -0.648052 z m 24.10754,16.590125 c -0.73446,0.604849 -1.2529,0.820866 -1.90095,0.820866 -0.99368,0 -1.29611,-0.604849 -1.29611,-2.5058 v -8.424673 c 0,-2.24658 -0.21601,-3.49948 -0.86407,-4.536363 -0.95047,-1.555324 -2.80822,-2.37619 -5.35722,-2.37619 -4.06113,0 -7.25818,2.116969 -7.25818,4.838787 0,0.993679 0.82086,1.857748 1.85775,1.857748 1.03688,0 1.94415,-0.864069 1.94415,-1.814545 0,-0.172813 -0.0432,-0.388831 -0.0864,-0.691255 -0.0864,-0.388831 -0.12961,-0.734459 -0.12961,-1.036883 0,-1.166493 1.38251,-2.116969 3.11065,-2.116969 2.11697,0 3.28346,1.2529 3.28346,3.585887 v 2.63541 c -6.61012,2.635411 -7.38779,3.024242 -9.24553,4.665973 -0.95048,0.864069 -1.55533,2.332986 -1.55533,3.7587 0,2.721818 1.90095,4.62277 4.53636,4.62277 1.90096,0 3.6723,-0.907273 6.30771,-3.153852 0.21601,2.289783 0.99368,3.153852 2.76502,3.153852 1.46892,0 2.37619,-0.518442 3.88831,-2.160173 z m -6.69654,-2.462597 c 0,1.296104 -0.21601,1.771342 -1.12329,2.289783 -1.08008,0.604849 -2.24658,0.950476 -3.15385,0.950476 -1.51212,0 -2.72182,-1.468917 -2.72182,-3.326665 v -0.172814 c 0.0432,-2.592207 1.94416,-4.233938 6.99896,-6.00528 z m 6.99897,5.314025 h 10.36883 V 39.59927 c -2.89463,-0.08641 -3.58589,-0.691255 -3.67229,-3.240259 v -9.720776 c 0,-1.382511 1.81454,-3.542683 3.02424,-3.542683 0.25922,0 0.64805,0.216017 1.12329,0.648052 0.64805,0.648051 1.16649,0.864069 1.72814,0.864069 1.03688,0 1.68493,-0.734459 1.68493,-1.944156 0,-1.425714 -0.90727,-2.289783 -2.37619,-2.289783 -1.81454,0 -3.02424,0.950476 -5.18441,4.061125 v -3.974718 l -0.21602,-0.08641 c -2.41939,0.950476 -3.97472,1.555325 -6.39411,2.332987 v 0.691255 c 0.60485,-0.12961 0.99368,-0.172814 1.51212,-0.172814 1.08009,0 1.46892,0.691255 1.46892,2.592207 v 10.800863 c -0.0864,2.24658 -0.34563,2.5058 -3.06745,2.981038 z m 31.5385,-7.085366 c -2.07376,3.283462 -3.93151,4.536362 -6.69653,4.536362 -2.4626,0 -4.32035,-1.2529 -5.57325,-3.715496 -0.77766,-1.641732 -1.08008,-3.024242 -1.16649,-5.702856 h 13.30666 c -0.34562,-2.808224 -0.77766,-4.061124 -1.85775,-5.443635 -1.2961,-1.555324 -3.28346,-2.462597 -5.53004,-2.462597 -2.16017,0 -4.19073,0.777662 -5.83246,2.24658 -2.03057,1.771341 -3.19706,4.838786 -3.19706,8.381469 0,5.962077 3.11065,9.677574 8.07905,9.677574 4.10433,0 7.34458,-2.549004 9.15913,-7.214977 z m -13.34986,-6.2645 c 0.47524,-3.36987 1.94415,-4.968397 4.57956,-4.968397 2.63541,0 3.6723,1.209696 4.23394,4.968397 z M 209.94,32.945939 h -1.2097 c -2.07376,4.579566 -4.01792,5.659652 -10.19601,5.702855 h -1.1665 c -4.49315,-0.12961 -4.53636,-0.172813 -4.53636,-1.857748 V 26.119793 h 6.65333 c 3.62909,0.08641 4.19074,0.604849 4.75238,4.147532 h 0.99368 V 20.244124 h -0.99368 c -0.51844,3.49948 -1.12329,4.017921 -4.75238,4.104328 h -6.65333 v -9.591166 c 0.0432,-1.296104 0.21602,-1.468918 1.42572,-1.468918 h 5.83246 c 5.0116,0.08641 5.87567,0.691256 6.56693,4.536363 h 1.08008 l -0.12961,-6.178094 h -22.94103 v 0.820866 c 3.15385,0.216017 3.67229,0.777662 3.7587,3.88831 v 19.182333 c -0.0864,3.110648 -0.64805,3.715497 -3.7587,3.88831 v 0.820866 h 23.32986 z m 1.38251,7.301383 h 9.15913 V 39.59927 c -2.16017,-0.12961 -2.85143,-0.691255 -2.85143,-2.246579 v -12.14017 c 2.07377,-1.944155 3.02425,-2.462597 4.44996,-2.462597 2.11697,0 3.15385,1.339307 3.15385,4.190735 v 9.029521 c -0.0864,2.808225 -0.60485,3.49948 -2.72182,3.62909 v 0.648052 h 8.98632 V 39.59927 c -2.11697,-0.216017 -2.59221,-0.734458 -2.63541,-2.851428 v -9.89359 c 0,-4.061124 -1.90095,-6.480518 -5.09801,-6.480518 -1.98735,0 -3.32666,0.734459 -6.2645,3.49948 v -3.413073 l -0.30242,-0.08641 c -2.24658,0.820866 -3.7155,1.296104 -5.96208,1.944156 v 0.734458 c 0.30243,-0.12961 0.69126,-0.172813 1.1665,-0.172813 1.20969,0 1.59852,0.648051 1.59852,2.76502 v 10.714456 c -0.0432,2.549004 -0.51844,3.110649 -2.67861,3.240259 z m 40.00643,-16.762939 v -1.684935 h -3.32666 c -0.90728,0 -1.51212,-0.12961 -2.37619,-0.432034 l -0.95048,-0.345628 c -1.12329,-0.432034 -2.33299,-0.648052 -3.45628,-0.648052 -4.01792,0 -7.21497,3.067445 -7.21497,7.042163 0,2.721817 1.12329,4.363549 4.01792,5.789262 l -1.12329,1.036883 c -0.90727,0.864069 -1.42571,1.339307 -1.55533,1.512121 -0.90727,0.950476 -1.16649,1.425714 -1.16649,2.160173 0,0.950476 0.47524,1.425714 2.28978,2.289783 -3.11064,2.246579 -4.23393,3.672293 -4.23393,5.270821 0,2.289783 3.32666,4.190734 7.47419,4.190734 3.24026,0 6.61013,-1.123289 8.85671,-2.937834 1.64173,-1.339307 2.37619,-2.721818 2.37619,-4.363549 0,-2.678614 -2.03056,-4.449955 -5.22762,-4.622769 l -5.57324,-0.259221 c -2.33299,-0.08641 -3.36987,-0.475238 -3.36987,-1.166493 0,-0.864069 1.42571,-2.37619 2.59221,-2.721818 1.55532,0.129611 2.37619,0.216018 2.46259,0.216018 1.59853,0 3.32667,-0.648052 4.66598,-1.814545 1.42571,-1.209697 2.07376,-2.721818 2.07376,-4.88199 0,-1.2529 -0.21602,-2.24658 -0.82086,-3.62909 z m -13.95471,16.849346 c 1.46891,0.302424 4.83878,0.561645 7.04216,0.561645 3.88831,0 5.31402,0.561645 5.31402,2.116969 0,2.5058 -3.28346,4.190735 -8.16545,4.190735 -3.84511,0 -6.3077,-1.2529 -6.3077,-3.153852 0,-0.99368 0.38883,-1.641731 2.11697,-3.715497 z m 0.21601,-14.689174 c 0,-2.549003 1.2097,-4.061124 3.19706,-4.061124 1.33931,0 2.4626,0.734459 3.15385,2.030562 0.82087,1.512121 1.29611,3.456276 1.29611,5.184414 0,2.419394 -1.2097,3.931514 -3.19706,3.931514 -2.67861,0 -4.44996,-2.808224 -4.44996,-6.955755 z m 15.72606,14.602767 h 10.23922 V 39.59927 c -2.85143,-0.216017 -3.15385,-0.604848 -3.19706,-3.7587 V 20.503345 l -0.17281,-0.129611 -6.69654,2.37619 v 0.648052 l 0.34563,-0.0432 c 0.51844,-0.08641 1.03688,-0.12961 1.46892,-0.12961 1.03688,0 1.42571,0.691255 1.42571,2.592207 V 35.84057 c -0.0864,3.197055 -0.47523,3.62909 -3.41307,3.7587 z m 4.83879,-29.507957 c -1.1665,0 -2.16018,0.993679 -2.16018,2.203376 0,1.2529 0.95048,2.203376 2.16018,2.203376 1.2961,0 2.24658,-0.950476 2.24658,-2.203376 0,-1.2529 -0.99368,-2.203376 -2.24658,-2.203376 z m 7.25818,29.507957 h 9.15913 V 39.59927 c -2.16017,-0.12961 -2.85143,-0.691255 -2.85143,-2.246579 v -12.14017 c 2.07377,-1.944155 3.02424,-2.462597 4.44996,-2.462597 2.11697,0 3.15385,1.339307 3.15385,4.190735 v 9.029521 c -0.0864,2.808225 -0.60485,3.49948 -2.72182,3.62909 v 0.648052 h 8.98632 V 39.59927 c -2.11697,-0.216017 -2.59221,-0.734458 -2.63541,-2.851428 v -9.89359 c 0,-4.061124 -1.90095,-6.480518 -5.09801,-6.480518 -1.98736,0 -3.32666,0.734459 -6.2645,3.49948 v -3.413073 l -0.30242,-0.08641 c -2.24658,0.820866 -3.7155,1.296104 -5.96208,1.944156 v 0.734458 c 0.30242,-0.12961 0.69126,-0.172813 1.16649,-0.172813 1.2097,0 1.59853,0.648051 1.59853,2.76502 v 10.714456 c -0.0432,2.549004 -0.51844,3.110649 -2.67861,3.240259 z m 38.45107,-7.085366 c -2.07377,3.283462 -3.93152,4.536362 -6.69654,4.536362 -2.46259,0 -4.32034,-1.2529 -5.57324,-3.715496 -0.77766,-1.641732 -1.08009,-3.024242 -1.16649,-5.702856 h 13.30666 c -0.34563,-2.808224 -0.77766,-4.061124 -1.85775,-5.443635 -1.2961,-1.555324 -3.28346,-2.462597 -5.53004,-2.462597 -2.16017,0 -4.19074,0.777662 -5.83247,2.24658 -2.03056,1.771341 -3.19705,4.838786 -3.19705,8.381469 0,5.962077 3.11065,9.677574 8.07904,9.677574 4.10433,0 7.34459,-2.549004 9.15913,-7.214977 z m -13.34987,-6.2645 c 0.47524,-3.36987 1.94416,-4.968397 4.57957,-4.968397 2.63541,0 3.67229,1.209696 4.23394,4.968397 z m 32.53221,6.2645 c -2.07377,3.283462 -3.93151,4.536362 -6.69653,4.536362 -2.4626,0 -4.32035,-1.2529 -5.57325,-3.715496 -0.77766,-1.641732 -1.08009,-3.024242 -1.16649,-5.702856 h 13.30666 c -0.34563,-2.808224 -0.77766,-4.061124 -1.85775,-5.443635 -1.2961,-1.555324 -3.28346,-2.462597 -5.53004,-2.462597 -2.16017,0 -4.19073,0.777662 -5.83247,2.24658 -2.03056,1.771341 -3.19705,4.838786 -3.19705,8.381469 0,5.962077 3.11065,9.677574 8.07904,9.677574 4.10433,0 7.34459,-2.549004 9.15914,-7.214977 z m -13.34987,-6.2645 c 0.47524,-3.36987 1.94416,-4.968397 4.57957,-4.968397 2.63541,0 3.67229,1.209696 4.23394,4.968397 z m 15.12122,13.349866 h 10.36883 V 39.59927 c -2.89463,-0.08641 -3.58589,-0.691255 -3.67229,-3.240259 v -9.720776 c 0,-1.382511 1.81454,-3.542683 3.02424,-3.542683 0.25922,0 0.64805,0.216017 1.12329,0.648052 0.64805,0.648051 1.16649,0.864069 1.72814,0.864069 1.03688,0 1.68493,-0.734459 1.68493,-1.944156 0,-1.425714 -0.90727,-2.289783 -2.37619,-2.289783 -1.81454,0 -3.02424,0.950476 -5.18441,4.061125 v -3.974718 l -0.21602,-0.08641 c -2.41939,0.950476 -3.97472,1.555325 -6.39411,2.332987 v 0.691255 c 0.60485,-0.12961 0.99368,-0.172814 1.51212,-0.172814 1.08008,0 1.46892,0.691255 1.46892,2.592207 v 10.800863 c -0.0864,2.24658 -0.34563,2.5058 -3.06745,2.981038 z"
     aria-label="Software Engineer" style="stroke-width:0.900072" />
    <rect width="95.182602" height="2.7002158" x="132.40869" y="49.799786" style="stroke-width:0.900072" />
</svg>
