<svg xmlns="http://www.w3.org/2000/svg" viewBox="0 0 330 32">
<style>text { font-family:system-ui,-apple-system,BlinkMacSystemFont,"Segoe UI",Roboto,"Helvetica Neue",Arial,"Noto Sans",sans-serif,"Apple Color Emoji","Segoe UI Emoji","Segoe UI Symbol","Noto Color Emoji"; font-weight:600; font-size: 16px; fill: #233} text:hover {text-decoration:underline} @media ( prefers-color-scheme: dark) { text {fill:#dfe2e2} }</style>
<path fill="#a9d158" d="M 27,-5.0000003e-8 H 5 C 2.23858,-5.0000003e-8 0,2.2385799 0,4.9999999 V 27 c 0,2.7614 2.23858,5 5,5 h 22 c 2.7614,0 5,-2.2386 5,-5 V 4.9999999 C 32,2.2385799 29.7614,-5.0000003e-8 27,-5.0000003e-8 Z"/>
<text x="40" y="20.137">lucianopereira@posteo.es</text>
<g transform="matrix(1.2889011,0,0,1.2311091,-8.0197895,-5.6998924)">
<path fill="#ffffff" stroke-width="1.65699" d="M 10.813,9.7897273 H 26.538364 V 24.581 H 10.813 Z"/>
<path fill="#a9d158" stroke-width="0.003" d="m 8.82,17.294 v 9.834 H 28.487 V 7.46 H 8.82 Z M 22.713,13.04 c 0.574,0.093 1.02,0.315 1.391,0.686 a 2.3,2.3 0 0 1 0.672,1.36 c 0.036,0.264 0.04,0.868 0.005,1.2 a 2.15,2.15 0 0 1 -0.604,1.27 c -0.244,0.24 -0.716,0.553 -1.003,0.665 -0.41,0.157 -1.281,0.337 -1.655,0.337 a 0.43,0.43 0 0 0 -0.166,0.026 c -0.03,0.02 -0.014,0.252 0.107,1.41 0.079,0.764 0.152,1.43 0.16,1.48 l 0.014,0.09 h -0.916 c -0.503,0 -0.913,-0.002 -0.916,-0.008 -0.005,-0.033 -0.94,-8.297 -0.938,-8.303 0.005,-0.005 0.983,-0.11 2.051,-0.216 0.753,-0.076 1.329,-0.073 1.798,0.003 z m -4.692,0.424 c -0.008,0.045 -0.477,1.877 -1.042,4.077 -0.562,2.197 -1.023,4.004 -1.023,4.01 0,0.008 -0.354,0.014 -0.787,0.014 -0.432,0 -0.786,-0.009 -0.786,-0.017 0,-0.017 2,-7.971 2.006,-7.983 0.003,-0.002 0.2,-0.025 0.438,-0.05 0.239,-0.026 0.562,-0.062 0.717,-0.082 a 5.18,5.18 0 0 1 0.39,-0.042 c 0.104,-0.003 0.107,0 0.087,0.073 z m -2.936,0.278 c 0,0.009 -0.46,1.765 -1.026,3.906 a 917.018,917.018 0 0 0 -1.025,3.903 c 0,0.008 -0.351,0.014 -0.781,0.014 h -0.784 l 1,-3.85 0.998,-3.849 0.157,-0.003 c 0.084,0 0.396,-0.03 0.688,-0.064 0.56,-0.068 0.773,-0.085 0.773,-0.057 z m 10.264,5.794 c 0.225,0.104 0.399,0.281 0.509,0.511 0.075,0.163 0.087,0.211 0.087,0.436 0,0.23 -0.009,0.272 -0.093,0.441 a 1.132,1.132 0 0 1 -0.562,0.531 1.174,1.174 0 0 1 -0.778,-0.003 1.134,1.134 0 0 1 -0.57,-0.567 1.078,1.078 0 0 1 0.027,-0.877 c 0.127,-0.25 0.42,-0.48 0.689,-0.55 0.19,-0.048 0.497,-0.015 0.691,0.078 z"/>
<path fill="#a9d158" stroke-width="0.003" d="m 21.022,14.476 c -0.09,0.005 -0.149,0.025 -0.149,0.045 -0.003,0.02 0.06,0.593 0.132,1.275 l 0.132,1.245 h 0.087 c 0.155,0 0.616,-0.081 0.815,-0.14 0.486,-0.152 0.756,-0.371 0.857,-0.697 0.149,-0.478 -0.025,-1.237 -0.348,-1.512 -0.211,-0.18 -0.363,-0.216 -0.902,-0.222 -0.262,-0.003 -0.545,0 -0.624,0.006 z"/>
</g></svg>
