<svg xmlns="http://www.w3.org/2000/svg" width="128" height="128" viewBox="0 0 33.867 33.867"><defs><linearGradient id="a" x1="-5167.096" x2="-4570.116" y1="697.555" y2="1395.619" gradientTransform="rotate(-65.023 -11.774 -44.429) scale(.00791)" gradientUnits="userSpaceOnUse"><stop offset="0" stop-color="#969289"/><stop offset=".312" stop-color="#969289"/><stop offset=".838" stop-color="#969289"/></linearGradient><linearGradient id="b" x1="-9585.342" x2="-5326.209" y1="620.505" y2="620.505" gradientTransform="rotate(-65.023 -11.774 -44.429) scale(.00791)" gradientUnits="userSpaceOnUse"><stop offset=".323" stop-color="#969289"/><stop offset=".63" stop-color="#969289"/><stop offset=".751" stop-color="#969289"/><stop offset="1" stop-color="#969289"/></linearGradient><linearGradient id="c" x1="-9071.207" x2="-6533.178" y1="1047.69" y2="1047.69" gradientTransform="rotate(-65.023 -11.774 -44.429) scale(.00791)" gradientUnits="userSpaceOnUse"><stop offset="0" stop-color="#969289"/><stop offset=".095" stop-color="#969289"/><stop offset=".788" stop-color="#969289"/><stop offset=".949" stop-color="#969289"/></linearGradient><linearGradient id="d" x1="-9346.126" x2="-5086.994" y1="580.817" y2="580.817" gradientTransform="rotate(-65.023 -11.774 -44.429) scale(.00791)" gradientUnits="userSpaceOnUse"><stop offset=".323" stop-color="#969289"/><stop offset=".63" stop-color="#969289"/><stop offset=".751" stop-color="#969289"/><stop offset="1" stop-color="#969289"/></linearGradient><linearGradient id="e" x1="-9035.503" x2="-6797.201" y1="638.441" y2="638.441" gradientTransform="rotate(-65.023 -11.774 -44.429) scale(.00791)" gradientUnits="userSpaceOnUse"><stop offset="0" stop-color="#969289"/><stop offset=".095" stop-color="#969289"/><stop offset=".788" stop-color="#969289"/><stop offset=".949" stop-color="#969289"/></linearGradient><linearGradient id="f" x1="-9346.126" x2="-5086.994" y1="1021.622" y2="1021.622" gradientTransform="rotate(-65.023 -11.774 -44.429) scale(.00791)" gradientUnits="userSpaceOnUse"><stop offset=".323" stop-color="#969289"/><stop offset=".63" stop-color="#969289"/><stop offset=".751" stop-color="#969289"/><stop offset="1" stop-color="#969289"/></linearGradient><linearGradient id="g" x1="-9610.334" x2="-5351.202" y1="999.733" y2="999.733" gradientTransform="rotate(-65.023 -11.774 -44.429) scale(.00791)" gradientUnits="userSpaceOnUse"><stop offset=".323" stop-color="#969289"/><stop offset=".63" stop-color="#969289"/><stop offset=".751" stop-color="#969289"/><stop offset="1" stop-color="#969289"/></linearGradient><linearGradient id="h" x1="-9346.126" x2="-5086.994" y1="1152.726" y2="1152.726" gradientTransform="rotate(-65.023 -11.774 -44.429) scale(.00791)" gradientUnits="userSpaceOnUse"><stop offset=".323" stop-color="#969289"/><stop offset=".63" stop-color="#969289"/><stop offset=".751" stop-color="#969289"/><stop offset="1" stop-color="#969289"/></linearGradient><linearGradient id="i" x1="-9346.126" x2="-5086.994" y1="1137.725" y2="1137.725" gradientTransform="rotate(-65.023 -11.774 -44.429) scale(.00791)" gradientUnits="userSpaceOnUse"><stop offset=".323" stop-color="#9e2064"/><stop offset=".63" stop-color="#969289"/><stop offset=".751" stop-color="#969289"/><stop offset="1" stop-color="#969289"/></linearGradient><linearGradient id="j" x1="-6953.407" x2="-6011.999" y1="1134.716" y2="1134.716" gradientTransform="rotate(-65.023 -11.774 -44.429) scale(.00791)" gradientUnits="userSpaceOnUse"><stop offset=".323" stop-color="#969289"/><stop offset=".63" stop-color="#969289"/><stop offset=".751" stop-color="#969289"/><stop offset="1" stop-color="#969289"/></linearGradient></defs><path fill="url(#a)" d="M22.82.37c-.525.31-1.397 1.186-2.437 2.456l.956 1.804a23.57 23.57 0 0 1 2.12-2.647l-.08.087c-.223.245-.898 1.032-1.916 2.596.98-.05 2.487-.25 3.716-.46.365-2.048-.359-2.985-.359-2.985s-.92-1.49-2-.851z"/><path fill="none" d="M21.201 10.662l.021-.004-.137.015c-.009.004-.016.008-.025.01.048-.006.094-.014.141-.021zm-.976 3.231zm-6.63 7.25l.03-.081a147.122 147.122 0 0 1 1.311-3.337 123.767 123.767 0 0 1 1.423-3.347 104.695 104.695 0 0 1 1.44-3.104l.108-.22c.005-.013.012-.024.017-.036l-.117.012-.093-.183-.028.054a74.825 74.825 0 0 0-.782 1.6 96.43 96.43 0 0 0-1.522 3.353 129.991 129.991 0 0 0-1.386 3.326c-.23.574-.455 1.142-.671 1.704a174.62 174.62 0 0 0-.655 1.722l.147.29.13-.014a161.752 161.752 0 0 1 .646-1.74zm6.33-7.198z"/><path fill="#969289" d="M19.609 15.52c-.122.023-.248.044-.377.067h-.002a6.991 6.991 0 0 0 .379-.066z"/><path fill="#969289" d="M19.609 15.52c-.122.023-.248.044-.377.067h-.002a6.991 6.991 0 0 0 .379-.066z" opacity=".35"/><path fill="#969289" d="M19.929 13.944h-.001l-.002.001.06-.008c.082-.012.162-.026.24-.043l-.297.05z"/><path fill="#969289" d="M19.929 13.944h-.001l-.002.001.06-.008c.082-.012.162-.026.24-.043l-.297.05z" opacity=".35"/><path fill="url(#b)" d="M18.52 9.292c.291-.543.586-1.074.883-1.59a45.95 45.95 0 0 1 .937-1.56l.056-.089c.311-.494.626-.968.944-1.423l-.956-1.804-.218.268c-.275.344-.562.713-.855 1.105a53.287 53.287 0 0 0-1.983 2.84 59.17 59.17 0 0 0-.827 1.3l-.031.05 1.244 2.458c.266-.526.535-1.046.807-1.555z"/><path fill="url(#c)" d="M12.855 23.136c-.164.452-.33.913-.496 1.384l-.007.02-.07.2c-.112.317-.21.602-.432 1.252.367.167.661.607.94 1.106a2.006 2.006 0 0 0-.65-1.378c1.806.081 3.363-.375 4.168-1.696.072-.118.137-.241.197-.373-.366.463-.82.66-1.673.612l-.006.003.006-.003c1.257-.562 1.887-1.102 2.444-1.997.132-.212.26-.444.392-.701-1.1 1.128-2.372 1.45-3.714 1.206l-1.005.11-.094.255z"/><path fill="url(#d)" d="M13.325 20.883a135.914 135.914 0 0 1 2.057-5.03 99.293 99.293 0 0 1 1.806-3.945c.164-.339.33-.675.498-1.008l.028-.054-1.244-2.457-.061.1a58.133 58.133 0 0 0-1.704 2.976 51.634 51.634 0 0 0-.81 1.586 36.326 36.326 0 0 0-.737 1.615 32.615 32.615 0 0 0-1.013 2.692c-.087.276-.17.554-.249.83a25.585 25.585 0 0 0-.477 1.949l1.25 2.468a174.62 174.62 0 0 1 .656-1.722z"/><path fill="url(#e)" d="M11.402 20.224c-.156.79-.268 1.577-.324 2.358-.002.028-.005.055-.006.083-.39-.625-1.435-1.235-1.432-1.23.747 1.084 1.315 2.16 1.4 3.217-.401.082-.95-.037-1.583-.27.66.607 1.157.775 1.35.82-.607.038-1.24.455-1.876.935.93-.38 1.683-.53 2.222-.408a183.431 183.431 0 0 0-2.568 7.927.747.747 0 0 0 .507-.493 170.46 170.46 0 0 1 2.754-8.312l.137-.38.04-.106a166.035 166.035 0 0 1 .646-1.759l-1.248-2.467c-.006.028-.013.056-.018.085z"/><path fill="url(#f)" d="M17.907 11.054l-.108.22-.327.681c-.12.251-.24.508-.362.77l-.185.4a104.68 104.68 0 0 0-1.284 2.907 123.767 123.767 0 0 0-1.391 3.409 147.13 147.13 0 0 0-1.301 3.44l1.005-.11-.06-.01c1.203-.15 2.801-1.048 3.835-2.158a9.537 9.537 0 0 0 1.308-1.82c.297-.525.577-1.107.843-1.752.232-.564.455-1.174.67-1.835a3.646 3.646 0 0 1-.941.327 6.019 6.019 0 0 1-.38.066h.003c1.122-.432 1.829-1.265 2.343-2.285a3.994 3.994 0 0 1-1.349.59 3.056 3.056 0 0 1-.239.044l-.06.008h.002v-.001c.39-.163.718-.345 1.003-.56a3.52 3.52 0 0 0 .573-.545 3.906 3.906 0 0 0 .403-.578l.107-.212c.157-.315.282-.596.382-.843a7.959 7.959 0 0 0 .27-.783c.038-.138.061-.248.074-.328-.038.03-.082.06-.13.09-.34.202-.92.385-1.389.472l.924-.102-.924.102-.02.004-.143.023.025-.011-3.16.346a1.284 1.284 0 0 1-.017.034z"/><path fill="url(#g)" d="M21.464 4.667c-.281.431-.588.92-.918 1.476-.018.028-.035.058-.052.087a66.638 66.638 0 0 0-1.765 3.194c-.26.5-.529 1.033-.804 1.595l3.16-.346c.92-.424 1.331-.807 1.731-1.36.106-.153.213-.313.319-.478.324-.507.642-1.065.927-1.62a16.81 16.81 0 0 0 .703-1.545c.118-.305.213-.588.279-.836.057-.22.102-.428.137-.626-1.23.21-2.737.41-3.717.459z"/><path fill="#969289" d="M19.925 13.945l.06-.008-.06.008z"/><path fill="#969289" d="M19.925 13.945l.06-.008-.06.008z" opacity=".35"/><path fill="url(#i)" d="M19.925 13.945l.06-.008-.06.008z"/><path fill="#969289" d="M19.928 13.945v-.001z"/><path fill="#969289" d="M19.928 13.945v-.001z" opacity=".35"/><path fill="url(#j)" d="M19.928 13.945v-.001z"/></svg>