<?xml version='1.0' encoding='utf-8'?>
<svg xmlns="http://www.w3.org/2000/svg" width="24.0" height="24" viewBox="0 0 256 256">
  <defs>
    <filter id="thicken">
	<feGaussianBlur in="SourceGraphic" stdDeviation="1" result="blur"/> 
	<feComponentTransfer>
		<feFuncA type="table" tableValues="0 6"/>
	</feComponentTransfer>
    </filter>
  </defs> 
  <rect fill="#969289" height="256" rx="32" width="256"/>
  <path fill="currentColor" filter="url(#thicken)" d="M185.542 167.467q-.144-.862-1.224-1.943-1.081-1.077-3.095-2.375-2.017-1.292-2.015-1.438-7.343-5.469-9.357-6.767-1.01-.573-3.526-1.582-2.52-1.006-2.807-1.152-.721-.285-3.095-1.079-2.376-.788-4.103-1.583-1.727-.788-2.304-1.656c-1.727-2.493-3.937-6.955-6.621-13.388-.576-1.531-1.608-3.933-3.096-7.196q-2.233-4.892-3.237-7.341c-.289-.669-.673-1.775-1.152-3.31q-.722-2.301-1.439-3.6-10.508-21.592-28.933-34.116c-4.703-3.166-9.165-5.418-13.387-6.766q-1.442-.572-4.606-.718-3.167-.143-4.607-.432h-1.87c-.672-.29-1.537-.91-2.591-1.873q-1.586-1.435-1.872-1.583c-2.302-1.727-5.325-3.404-9.068-5.039q-4.608-2.013-5.901-.861-1.008.287-1.295 1.295-.722 1.295.431 4.175c.384.959.865 1.849 1.439 2.661q.864 1.224 1.943 2.735c1.079 1.511 1.271 1.754 1.656 2.23q3.74 5.616 4.75 7.774 1.15 2.88 2.879 8.78 1.725 5.904 2.735 8.492 1.582 3.601 3.455 6.479.14.146 1.583 1.727 1.437 1.585 1.727 2.734.576.436.289 2.305-.291 1.87-.648 3.096a43 43 0 0 1-1.081 3.093q-.722 1.873-.863 2.304-1.729 6.194-1.439 13.675.286 7.486 2.302 12.954.144.146.361.792.215.65.287.864.07.216.361.865.286.647.431.861.141.217.433.722.287.503.504.718.215.217.576.648.357.435.648.577.286.143.646.357.359.219.937.36 0-.141.287-.287.142-.862.433-3.813.287-2.949.504-4.248.215-1.292.648-3.31a27 27 0 0 1 1.007-3.6q.575-1.581 2.303-3.887 1.728-2.301 2.159-2.879.432.291.719.865.288.577.433 1.438.142.864.289 1.296 3.02 7.341 4.029 9.501 5.183 10.507 10.364 18.28 2.013 2.738 4.894 5.901.288.146 1.08.791c.526.435.886.841 1.081 1.226h.144v.287c-1.058-.482-2.376-1.534-3.959-3.166s-2.52-2.542-2.807-2.734c-5.375-4.413-9.406-8.927-12.092-13.532a297 297 0 0 1-3.742-8.205v-.144a1.26 1.26 0 0 0-.359.719q-.075.435-.145 1.008a8 8 0 0 0-.072 1.009q-.432 1.293-.791 4.679-.361 3.382-1.079 5.18-.723 1.8-2.591 2.665c-3.36 1.438-6.622-.526-9.788-5.901-2.4-4.224-3.864-9.452-4.391-15.692q-.793-9.352 1.656-17.85c0-.189.215-1.295.648-3.31q.647-3.02 1.511-4.174a3.2 3.2 0 0 0-.576-1.296 11 11 0 0 0-1.007-1.152q-.578-.573-.865-1.008-1.44-2.012-3.311-6.045c-.574-1.152-2.208-5.659-4.894-13.531-.192-.477-.431-1.296-.72-2.445a90 90 0 0 0-.719-2.734q-.721-1.585-4.75-7.487-.287-.572-1.366-1.943a48 48 0 0 1-1.728-2.301q-.649-.936-1.583-2.665-.938-1.727-1.224-2.949-.29-1.224-.576-3.096-.288-1.872.576-3.166 1.15-3.025 3.455-4.247c1.534-.813 3.117-1.128 4.75-.936q2.446.289 5.47 1.439 3.023 1.155 5.11 2.304a43 43 0 0 1 4.103 2.589q.43.291 1.943 1.656 1.51 1.37 2.231 1.656 4.604.288 7.053.431 8.924 2.305 11.804 4.175 12.378 7.63 20.656 16.193 8.276 8.565 15.476 21.089a29 29 0 0 1 1.583 3.456 263 263 0 0 1 1.583 4.244c.575 1.583 1.054 2.809 1.438 3.67q3.886 9.646 7.63 17.275.431.862 1.151 2.592a70 70 0 0 0 1.296 2.948 9.7 9.7 0 0 0 1.439 2.231q.286.578 1.872 1.152 1.581.578 1.727.721.863.432 4.39 2.087 3.528 1.657 5.255 2.949c4.699 3.169 9.788 7.249 15.258 12.235q1.006.865 2.52 3.022c1.007 1.439 1.75 2.402 2.23 2.879v.865q-.72.289-4.463 1.438-1.727.431-4.749.792-3.024.359-4.606.791-4.896 1.44-6.333 1.583l.144.291q.574 1.58 2.446 3.166 1.871 1.58 4.678 3.31 2.807 1.727 3.527 2.304 5.903 4.605 9.788 10.075l2.734 2.879q.289.433.72 1.583c.289.767.527 1.296.722 1.586v.29q-.722-.29-1.729-1.296-1.008-1.009-1.296-1.151c-3.646-2.977-5.662-4.605-6.046-4.896q-1.872-1.151-5.686-3.021-3.815-1.872-5.542-3.022-1.726-1.156-5.9-4.605-2.594-2.016-4.895-6.191-.29-.288-.72-1.439-.432-1.152-.864-1.727.143-.863.72-1.296.574-.43 1.728-.718c.768-.192 1.245-.336 1.439-.434q6.76-3.023 17.989-2.737M87.371 82.109q.287.288 1.224 1.006.935.722 1.368 1.295c.095.196.238.529.431 1.009q.289.721.576 1.009c0 2.301-.625 3.936-1.87 4.893q-.001.148-.145.287-.722-1.435-2.159-4.749-.288-.43-1.368-1.8-1.08-1.365-1.511-2.231h-.287v-.288q2.012-.43 3.741-.431" />
</svg>